<?xml version="1.0" standalone="no"?>
<!DOCTYPE svg PUBLIC "-//W3C//DTD SVG 20010904//EN"
 "http://www.w3.org/TR/2001/REC-SVG-20010904/DTD/svg10.dtd">
<svg version="1.0" xmlns="http://www.w3.org/2000/svg"
 width="1200.000000pt" height="1201.000000pt" viewBox="0 0 1200.000000 1201.000000"
 preserveAspectRatio="xMidYMid meet">

<g transform="translate(0.000000,1201.000000) scale(0.100000,-0.100000)"
fill="#ffffff" stroke="none">
<path d="M5670 11999 c-523 -30 -1027 -124 -1523 -285 -1698 -551 -3076 -1851
-3732 -3519 -505 -1286 -548 -2729 -118 -4040 287 -878 764 -1666 1403 -2319
392 -401 763 -696 1225 -973 1720 -1035 3879 -1131 5680 -254 460 224 854 480
1260 817 174 144 582 554 732 734 725 875 1178 1886 1338 2986 46 317 58 494
58 864 0 370 -12 547 -58 864 -126 867 -435 1681 -922 2426 -226 344 -454 623
-777 946 -247 246 -396 377 -639 560 -1122 846 -2527 1273 -3927 1193z m595
-269 c611 -32 1152 -141 1707 -344 199 -72 355 -141 588 -257 1366 -684 2410
-1894 2884 -3344 288 -883 356 -1810 200 -2735 -254 -1513 -1121 -2870 -2396
-3753 -512 -354 -1123 -642 -1708 -803 -523 -144 -990 -207 -1540 -207 -301 0
-454 9 -730 44 -1425 180 -2741 905 -3673 2023 -1180 1415 -1602 3310 -1137
5101 322 1243 1074 2361 2110 3136 735 551 1575 912 2470 1063 433 73 823 97
1225 76z"/>
<path d="M5795 11149 c-617 -20 -1233 -158 -1815 -407 -878 -375 -1640 -993
-2196 -1785 -42 -59 -73 -111 -69 -115 11 -11 654 -6 905 7 124 6 359 21 523
32 344 23 359 21 422 -45 86 -89 86 -215 2 -300 -23 -23 -60 -47 -82 -54 -22
-6 -150 -21 -285 -33 -344 -29 -351 -30 -348 -39 2 -5 422 -1253 933 -2774
512 -1521 932 -2766 935 -2766 7 0 1120 3332 1120 3353 0 14 -786 2184 -795
2195 -2 2 -61 7 -131 13 -71 5 -204 18 -296 28 -195 21 -228 34 -273 106 -56
91 -34 227 47 288 60 45 94 50 255 38 285 -21 641 -41 941 -51 396 -14 963 4
1565 51 153 11 183 8 244 -27 81 -47 117 -176 74 -269 -23 -50 -79 -101 -128
-115 -21 -5 -148 -19 -283 -31 -135 -11 -268 -23 -297 -25 l-51 -5 117 -347
c65 -191 482 -1430 927 -2754 445 -1325 811 -2408 814 -2408 3 0 106 339 229
753 124 413 267 889 319 1057 207 670 279 936 323 1190 31 180 34 550 5 730
-65 414 -184 698 -541 1285 -245 404 -329 611 -355 873 -19 188 8 337 95 517
88 183 229 328 400 410 113 55 193 76 320 84 l100 6 -102 89 c-281 244 -627
480 -973 664 -649 344 -1447 558 -2150 578 -96 2 -191 6 -210 7 -19 1 -125 -1
-235 -4z"/>
<path d="M10524 8430 c31 -202 32 -713 1 -960 -48 -391 -150 -794 -309 -1220
-78 -210 -1624 -4674 -1620 -4679 4 -4 126 71 259 159 475 318 924 744 1268
1204 627 841 974 1820 1016 2871 33 822 -124 1614 -471 2370 -35 77 -83 174
-107 215 -36 64 -42 70 -37 40z"/>
<path d="M1251 7991 c-210 -507 -337 -1038 -381 -1591 -14 -175 -14 -619 0
-785 93 -1117 506 -2112 1228 -2960 120 -141 444 -461 592 -584 289 -242 594
-446 934 -626 98 -52 128 -64 122 -49 -4 10 -554 1518 -1223 3349 -668 1832
-1218 3334 -1222 3338 -5 4 -27 -37 -50 -92z"/>
<path d="M5321 3317 c-421 -1222 -766 -2227 -768 -2233 -5 -13 -9 -12 197 -64
479 -120 963 -170 1455 -150 320 14 570 45 877 110 242 51 618 161 618 181 0
5 -8 26 -19 47 -10 20 -371 1003 -801 2185 -431 1181 -786 2147 -789 2147 -4
0 -350 -1000 -770 -2223z"/>
</g>
</svg>
