<?xml version="1.0" encoding="UTF-8"?>
<svg version="1.1" xmlns="http://www.w3.org/2000/svg" width="512" height="512">
<path d="M0 0 C149.16 0 298.32 0 452 0 C446.20313812 69.56234256 446.20313812 69.56234256 443.70929146 97.45319939 C443.20571022 103.08997457 442.70458961 108.72696747 442.20353699 114.3639679 C441.38379619 123.58288343 440.56229849 132.80164149 439.74008617 142.0203369 C439.07215014 149.50971984 438.40493083 156.99916635 437.73818207 164.48865509 C437.6420106 165.56893288 437.54583913 166.64921067 437.44675337 167.76222415 C437.2512299 169.95854709 437.05570831 172.15487019 436.86018857 174.35119346 C435.04715743 194.71660552 433.23211341 215.08183777 431.41629776 235.44700173 C429.86082897 252.89275698 428.3070154 270.33865903 426.75439453 287.78466797 C424.93967487 308.17573166 423.12404577 328.566714 421.30689025 348.95756078 C421.11344434 351.12829535 420.91999921 353.29903 420.72655487 355.46976471 C420.63142666 356.53723509 420.53629845 357.60470546 420.43828757 358.70452343 C419.76993865 366.20499641 419.10222843 373.7055261 418.43476105 381.20607758 C417.6242939 390.31332155 416.81280085 399.42047342 415.9999927 408.52750877 C415.58596541 413.16671408 415.17239141 417.8059586 414.76005363 422.44531441 C414.3827099 426.69078665 414.00404724 430.93613912 413.6243355 435.18140021 C413.48736356 436.71536097 413.3508704 438.24936458 413.21490815 439.78341517 C412.58651696 446.8707003 411.95698245 453.94805687 411 461 C367.8318652 473.12934416 324.66324218 485.25695609 281.49041748 497.36959839 C277.9275832 498.36919847 274.3648004 499.36898172 270.80206299 500.368927 C266.60727668 501.54625104 262.41237808 502.72317411 258.21739197 503.899786 C256.69142414 504.32785394 255.16549281 504.756052 253.63960266 505.18439674 C252.92535629 505.38488813 252.21110992 505.58537952 251.47521973 505.79194641 C250.78511936 505.98570642 250.095019 506.17946642 249.3840065 506.37909794 C247.43147774 506.92586391 245.47775201 507.4683499 243.52398682 508.01068115 C241.29630975 508.63607592 239.07300958 509.27747619 236.85638428 509.940979 C235.44609955 510.35522125 235.44609955 510.35522125 234.00732422 510.77783203 C233.22251678 511.01615753 232.43770935 511.25448303 231.62911987 511.50003052 C225.37435365 512.68947504 220.06677349 512.01912172 214.00512695 510.26953125 C213.34871814 510.08326015 212.69230932 509.89698904 212.01600933 509.70507336 C209.83712722 509.08411238 207.66287452 508.44830249 205.48828125 507.8125 C203.91564038 507.36128638 202.34271547 506.91106173 200.76953125 506.46174622 C197.3869604 505.49357754 194.0063395 504.51896712 190.62710571 503.53921509 C185.26306719 501.98413187 179.8950317 500.44320213 174.52612305 498.9050293 C168.88423383 497.28812131 163.2425309 495.67059102 157.60212708 494.04850769 C137.12367445 488.1608062 116.61580642 482.37816086 96.10628891 476.59979248 C88.92829402 474.57702642 81.75106237 472.55155358 74.5737915 470.52622032 C72.20821023 469.85881377 69.84252114 469.19179072 67.47680664 468.52485657 C66.02009897 468.11399003 64.56339314 467.70311698 63.10668945 467.29223633 C61.25476738 466.77008293 61.25476738 466.77008293 59.36543274 466.23738098 C53.23975511 464.50520808 47.12044375 462.75055444 41 461 C36.59963063 415.42906662 32.56397081 369.82589982 28.51475073 324.22272851 C27.8260478 316.46664177 27.13674904 308.71060817 26.44706154 300.95460892 C26.34782598 299.83863475 26.24859043 298.72266058 26.14634774 297.57286901 C25.94462482 295.30438239 25.74290048 293.03589589 25.54117475 290.76740952 C23.66751531 269.69664121 21.79557092 248.62572083 19.92426268 227.5547436 C18.31956455 209.48624783 16.71340365 191.41788255 15.10620117 173.34960938 C13.23038254 152.26152589 11.35541189 131.17336731 9.48183471 110.08508456 C9.28251063 107.84159056 9.08318561 105.59809664 8.88385963 103.35460281 C8.73681009 101.69949055 8.73681009 101.69949055 8.58678984 100.01094168 C7.89641622 92.24111168 7.20543738 84.47133564 6.51422691 76.70158005 C5.67522469 67.27032477 4.83716172 57.8389866 4.00032153 48.40753923 C3.57362101 43.59875699 3.14649182 38.79001383 2.71822357 33.98137093 C2.32684789 29.58682418 1.93668109 25.19217189 1.5475044 20.79742987 C1.40612515 19.20337161 1.2642941 17.60935334 1.1219798 16.01537828 C0.92952517 13.8590688 0.73868044 11.70262286 0.54825878 9.54613304 C0.44160969 8.34570818 0.3349606 7.14528332 0.22507972 5.90848196 C0 3 0 3 0 0 Z M85 95 C86.81243956 117.95756782 88.6418376 140.90514587 90.6640625 163.84375 C90.84317154 165.88264078 91.02207246 167.92154975 91.20095766 169.96046019 C91.75614223 176.28806548 92.31301755 182.61552022 92.87109375 188.94287109 C93.44335927 195.43144962 94.01258572 201.92029008 94.58044589 208.4092555 C95.0747878 214.05692744 95.57094246 219.70443812 96.06856 225.35182238 C96.36300876 228.69366275 96.65658929 232.03557291 96.94881058 235.37760925 C97.27174005 239.06769609 97.59763932 242.75750894 97.92431641 246.44726562 C98.01886612 247.53483658 98.11341583 248.62240753 98.21083069 249.74293518 C98.30042557 250.74803635 98.39002045 251.75313751 98.48233032 252.78869629 C98.55862986 253.65560341 98.63492939 254.52251053 98.71354103 255.41568756 C99.03230759 258.29146548 99.52432947 261.14597682 100 264 C164.68 264 229.36 264 296 264 C295.01 272.58 294.02 281.16 293 290 C292.33804511 296.50664025 291.67874675 303.01039487 291.06469727 309.52124023 C290.80600774 312.2561369 290.54083526 314.99036088 290.27539062 317.72460938 C290.10639045 319.49735961 289.93775573 321.27014474 289.76953125 323.04296875 C289.6914473 323.84397507 289.61336334 324.64498138 289.53291321 325.47026062 C289.11098399 330.00374389 288.92551925 334.44684448 289 339 C287.92564697 339.09982178 286.85129395 339.19964355 285.74438477 339.30249023 C280.04477101 340.01955882 274.61060393 341.61280513 269.08984375 343.16015625 C266.77804106 343.79509038 264.46619065 344.42985077 262.15429688 345.06445312 C258.53713461 346.06436911 254.92080085 347.06714819 251.30541992 348.07348633 C247.79811694 349.04751229 244.28795543 350.01063545 240.77734375 350.97265625 C239.70113266 351.27575211 238.62492157 351.57884796 237.51609802 351.89112854 C236.50136917 352.16819138 235.48664032 352.44525421 234.44116211 352.73071289 C233.55706161 352.97640518 232.67296112 353.22209747 231.7620697 353.47523499 C226.15126213 354.54123108 221.25460602 354.03567649 215.78930664 352.53125 C214.60861099 352.21091797 213.42791534 351.89058594 212.21144104 351.56054688 C210.95701706 351.21056641 209.70259308 350.86058594 208.41015625 350.5 C207.0975783 350.14050121 205.78478456 349.7817895 204.4717865 349.42382812 C201.0353974 348.48471701 197.60202408 347.53501741 194.16918945 346.58300781 C190.65818714 345.61136874 187.14440975 344.6498758 183.63085938 343.6875 C176.75117228 341.80153195 169.87462297 339.90435261 163 338 C162.82609741 336.26713745 162.82609741 336.26713745 162.64868164 334.49926758 C162.21690187 330.20328094 161.78190483 325.90762507 161.34594727 321.61206055 C161.15789772 319.75472706 160.97071464 317.89730563 160.78442383 316.03979492 C160.51612786 313.36613617 160.24469253 310.69281171 159.97265625 308.01953125 C159.89032242 307.19226028 159.80798859 306.36498932 159.72315979 305.51264954 C159.64315231 304.73221786 159.56314484 303.95178619 159.48071289 303.14770508 C159.41187393 302.46597733 159.34303497 301.78424957 159.27210999 301.0818634 C158.96127054 298.70368804 158.47036562 296.3518281 158 294 C139.85 294 121.7 294 103 294 C103.62222983 305.200137 104.27919403 316.36834399 105.15625 327.546875 C105.26462375 328.94166317 105.37289779 330.3364591 105.4810791 331.73126221 C105.70496263 334.61163772 105.93031629 337.49189328 106.15673828 340.37207031 C106.44569765 344.04984718 106.73036575 347.7279426 107.01392365 351.40613937 C107.23511657 354.26823495 107.45877477 357.1301339 107.68315125 359.99198151 C107.84028761 362.00257304 107.99518131 364.01333944 108.15002441 366.02410889 C108.24682495 367.24688538 108.34362549 368.46966187 108.44335938 369.72949219 C108.52694702 370.79882996 108.61053467 371.86816772 108.69665527 372.96990967 C109.00112259 376.01121345 109.46340925 378.99172669 110 382 C113.91393709 383.0896378 113.91393709 383.0896378 117.82803345 384.17870331 C121.44636884 385.18524817 125.06422499 386.1934682 128.68133545 387.20440674 C136.04415514 389.25996453 143.41003682 391.30065686 150.79306793 393.28257751 C154.97344369 394.40490777 159.15137751 395.53612214 163.328125 396.671875 C164.56844231 397.00880371 164.56844231 397.00880371 165.83381653 397.35253906 C175.47306911 399.98679697 184.80646658 402.86002522 194.046875 406.703125 C226.52252036 419.73207085 255.74084376 407.90415448 287.40923119 397.44974899 C298.58164902 393.76173175 309.86129046 390.55864479 321.22213745 387.5012207 C325.53091953 386.33599159 329.8276498 385.12843554 334.125 383.921875 C336.41663542 383.28113824 338.70829915 382.64050272 341 382 C342.37401671 371.45739834 343.54532396 360.91457178 344.51220703 350.32568359 C344.65021785 348.83552099 344.78844901 347.34537877 344.92687988 345.85525513 C345.29693687 341.86441198 345.66376445 337.87327854 346.02979517 333.88206434 C346.33694811 330.53647089 346.64579173 327.19103437 346.95463836 323.84559691 C347.68284034 315.95765994 348.40846845 308.06948927 349.13232422 300.18115234 C349.87778984 292.05770364 350.62714807 283.93462078 351.37846863 275.81171167 C352.02595269 268.81026424 352.6713012 261.80862234 353.3148793 254.80681479 C353.69823588 250.63614179 354.08233394 246.46554072 354.4683876 242.29511642 C354.83038791 238.38329241 355.18970486 234.47123094 355.54696655 230.55897141 C355.67824373 229.12621433 355.81044865 227.69354191 355.94366074 226.26096344 C356.12563566 224.30233296 356.303887 222.3433576 356.48196411 220.3843689 C356.58260729 219.28978048 356.68325047 218.19519207 356.78694344 217.06743431 C356.99643068 214.05138845 357 211.02331235 357 208 C289.02 208 221.04 208 151 208 C150.34 198.43 149.68 188.86 149 179 C148.07334707 164.42290394 148.07334707 164.42290394 146 150 C217.28 150 288.56 150 362 150 C365.398093 122.54391889 365.398093 122.54391889 367 95 C273.94 95 180.88 95 85 95 Z " fill="#000000" transform="translate(30,0)"/>
</svg>
