<?xml version="1.0" encoding="UTF-8"?>
<svg version="1.1" xmlns="http://www.w3.org/2000/svg" width="3000" height="2000">
<path d="M0 0 C440.22 0 880.44 0 1334 0 C1330.38198698 4.22101519 1326.94002314 8.18491782 1323.04210579 12.0820927 C1322.34624489 12.77987073 1322.34624489 12.77987073 1321.63632619 13.49174529 C1320.0936009 15.03751379 1318.54736533 16.57972006 1317.00110054 18.12194729 C1315.8734287 19.25035947 1314.74597642 20.37899109 1313.61872303 21.50782129 C1310.5185054 24.61110301 1307.41518088 27.71126143 1304.31134375 30.81092244 C1300.93597901 34.18284937 1297.56352155 37.55768194 1294.19069564 40.93214804 C1288.27847965 46.84643729 1282.36440829 52.75886616 1276.44912148 58.670084 C1267.65330543 67.45986643 1258.86035662 76.25251293 1250.06799592 85.04575155 C1235.27795623 99.8371054 1220.48558924 114.62612972 1205.69189835 129.41383171 C1191.04250267 144.05731208 1176.39413997 158.70182448 1161.74715805 173.34771919 C1160.83674065 174.25806785 1159.92632326 175.16841651 1158.98831746 176.10635149 C1154.36484701 180.7294836 1149.74139504 185.35263418 1145.11795019 189.97579188 C1135.71630266 199.37683639 1126.31449242 208.77771818 1116.91261101 218.17852879 C1116.44222005 218.64886643 1115.97182909 219.11920407 1115.48718385 219.60379437 C1092.60829483 242.48006221 1069.72756298 265.35448663 1046.84667969 288.22875977 C1038.90702677 296.16612101 1030.96738201 304.1034904 1023.027771 312.04089355 C1022.53535199 312.53317561 1022.04293299 313.02545767 1021.53559219 313.53265736 C998.64198897 336.41991588 975.74969546 359.30848422 952.85773947 382.19739029 C951.37147861 383.68345309 949.88521718 385.16951532 948.39895564 386.65557744 C938.54937952 396.50383377 928.69982598 406.35211266 918.85028754 416.20040667 C898.78531539 436.26284335 878.72019996 456.32513674 858.65499878 476.38734436 C857.7324163 477.30978955 856.80983381 478.23223475 855.85929429 479.18263282 C794.24191613 540.790809 732.62121663 602.39566315 671 664 C671.94649731 665.11342817 672.89431619 666.22573299 673.84268188 667.33757019 C674.37035471 667.95710666 674.89802753 668.57664312 675.44169044 669.21495342 C677.51052007 671.58480172 679.71204968 673.78949353 681.9609375 675.98828125 C682.84394531 676.85904297 683.72695312 677.72980469 684.63671875 678.62695312 C686.48395081 680.43861081 688.33295087 682.2484673 690.18359375 684.05664062 C691.05886719 684.92095703 691.93414063 685.78527344 692.8359375 686.67578125 C693.63563965 687.45864502 694.4353418 688.24150879 695.25927734 689.0480957 C697 691 697 691 697 693 C697.66 693 698.32 693 699 693 C699 693.66 699 694.32 699 695 C699.66 695 700.32 695 701 695 C702.25928307 696.27872944 702.25928307 696.27872944 703.79428101 698.16218567 C709.26821576 704.59028413 715.31674463 710.44790955 721.29150391 716.4050293 C722.63437534 717.74761826 723.97702582 719.09042825 725.31947327 720.43344116 C728.94720886 724.06146252 732.57801013 727.68640151 736.2093854 731.31077933 C740.01650238 735.11161987 743.8207636 738.9153166 747.62533569 742.71870422 C754.82783206 749.91809756 762.0328718 757.1149399 769.23883951 764.31085855 C777.42517128 772.4860199 785.60867166 780.66401301 793.79192853 788.84225214 C807.77957547 802.82122361 821.7693313 816.79808163 835.76145935 830.77256775 C836.64753406 831.65753306 836.64753406 831.65753306 837.55150926 832.56037647 C838.63482642 833.64232573 839.71815898 834.72425956 840.80151141 835.8061735 C842.20112429 837.20399884 843.60056622 838.60199535 845 840 C845.94370138 840.90231259 846.88740276 841.80462519 847.85970116 842.73428059 C850 845 850 845 850 847 C850.66 847 851.32 847 852 847 C852 847.66 852 848.32 852 849 C852.66 849 853.32 849 854 849 C854 849.66 854 850.32 854 851 C854.66 851 855.32 851 856 851 C857.27864647 852.29809284 857.27864647 852.29809284 858.82870483 854.1966095 C864.12335593 860.4145733 869.961532 866.09292304 875.74072266 871.85424805 C877.02448156 873.13772444 878.30801945 874.42142194 879.59135437 875.70532227 C883.0579383 879.17219184 886.52758651 882.63597965 889.99781084 886.09920478 C893.63676564 889.73188086 897.27286251 893.36741533 900.90927124 897.00263977 C907.79302371 903.88328976 914.67931923 910.76138873 921.56654394 917.63856298 C929.39012597 925.45097392 937.21087611 933.26621712 945.0313828 941.0817064 C958.39946736 954.44111609 971.76965654 967.79841639 985.14222717 981.15333557 C985.98932646 981.99932547 985.98932646 981.99932547 986.85353887 982.86240608 C987.88852517 983.89602558 988.92352735 984.92962918 989.9585501 985.96321219 C991.30582224 987.3086858 992.65291478 988.65433925 994 990 C994.93900335 990.89761456 995.87800671 991.79522913 996.84546471 992.72004414 C999 995 999 995 999 997 C999.66 997 1000.32 997 1001 997 C1002.25326633 998.27382851 1002.25326633 998.27382851 1003.78358459 1000.1534729 C1009.30780926 1006.64044645 1015.42590004 1012.54019178 1021.46264648 1018.54443359 C1022.82349906 1019.90172518 1024.1841138 1021.25925527 1025.54450989 1022.61700439 C1028.46067161 1025.52664428 1031.3783344 1028.43476743 1034.29714775 1031.34174728 C1038.90897447 1035.93522094 1043.51639945 1040.53309264 1048.12306213 1045.13174438 C1061.21818723 1058.20275843 1074.31927882 1071.26778285 1087.42456055 1084.32861328 C1094.67274754 1091.55229286 1101.91736833 1098.77952982 1109.15814453 1106.01063788 C1113.74110166 1110.58703884 1118.32853624 1115.15888951 1122.91929138 1119.7274673 C1125.7642403 1122.56073013 1128.60504151 1125.39812269 1131.44465446 1128.23673248 C1132.76681238 1129.55673385 1134.09070308 1130.87500209 1135.41640091 1132.19144821 C1137.218239 1133.98119084 1139.01390414 1135.7769017 1140.80809021 1137.5743103 C1141.34026624 1138.09997853 1141.87244226 1138.62564675 1142.42074484 1139.16724432 C1146 1142.77178459 1146 1142.77178459 1146 1145 C1146.66 1145 1147.32 1145 1148 1145 C1148 1145.66 1148 1146.32 1148 1147 C1148.66 1147 1149.32 1147 1150 1147 C1151.25326633 1148.27382851 1151.25326633 1148.27382851 1152.78358459 1150.1534729 C1158.30780926 1156.64044645 1164.42590004 1162.54019178 1170.46264648 1168.54443359 C1171.82349906 1169.90172518 1173.1841138 1171.25925527 1174.54450989 1172.61700439 C1177.46067161 1175.52664428 1180.3783344 1178.43476743 1183.29714775 1181.34174728 C1187.90897447 1185.93522094 1192.51639945 1190.53309264 1197.12306213 1195.13174438 C1210.21818723 1208.20275843 1223.31927882 1221.26778285 1236.42456055 1234.32861328 C1243.67274754 1241.55229286 1250.91736833 1248.77952982 1258.15814453 1256.01063788 C1262.74110166 1260.58703884 1267.32853624 1265.15888951 1271.91929138 1269.7274673 C1274.7642403 1272.56073013 1277.60504151 1275.39812269 1280.44465446 1278.23673248 C1281.76681238 1279.55673385 1283.09070308 1280.87500209 1284.41640091 1282.19144821 C1286.218239 1283.98119084 1288.01390414 1285.7769017 1289.80809021 1287.5743103 C1290.34026624 1288.09997853 1290.87244226 1288.62564675 1291.42074484 1289.16724432 C1295 1292.77178459 1295 1292.77178459 1295 1295 C1295.66 1295 1296.32 1295 1297 1295 C1297 1295.66 1297 1296.32 1297 1297 C1297.66 1297 1298.32 1297 1299 1297 C1300.21899414 1298.24243164 1300.21899414 1298.24243164 1301.72265625 1300.09765625 C1305.23162357 1304.22526442 1308.96844912 1308.05588637 1312.80859375 1311.87109375 C1313.42368805 1312.48288483 1314.03878235 1313.0946759 1314.67251587 1313.7250061 C1316.59224164 1315.63113499 1318.5144574 1317.53471773 1320.4375 1319.4375 C1323.00153083 1321.97502922 1325.56228341 1324.51580167 1328.12109375 1327.05859375 C1328.71160019 1327.64080185 1329.30210663 1328.22300995 1329.9105072 1328.82286072 C1331.2925931 1330.19646066 1332.64923119 1331.595592 1334 1333 C1334 1333.33 1334 1333.66 1334 1334 C893.78 1334 453.56 1334 0 1334 C0 893.78 0 453.56 0 0 Z " fill="#D86979" transform="translate(833,333)"/>
<path d="M0 0 C3.91319172 1.81392266 6.63014617 4.34035462 9.640625 7.375 C10.16767029 7.90013184 10.69471558 8.42526367 11.23773193 8.96630859 C12.34616928 10.07338883 13.45210046 11.1829833 14.55566406 12.29492188 C16.25106301 14.00106975 17.9569161 15.69624047 19.6640625 17.390625 C20.74022558 18.46810892 21.81576851 19.54621267 22.890625 20.625 C23.40304749 21.13337402 23.91546997 21.64174805 24.44342041 22.16552734 C28 25.77005909 28 25.77005909 28 28 C28.66 28 29.32 28 30 28 C30 28.66 30 29.32 30 30 C30.66 30 31.32 30 32 30 C33.25928307 31.27872944 33.25928307 31.27872944 34.79428101 33.16218567 C40.26821576 39.59028413 46.31674463 45.44790955 52.29150391 51.4050293 C53.63437534 52.74761826 54.97702582 54.09042825 56.31947327 55.43344116 C59.94720886 59.06146252 63.57801013 62.68640151 67.2093854 66.31077933 C71.01650238 70.11161987 74.8207636 73.9153166 78.62533569 77.71870422 C85.82783206 84.91809756 93.0328718 92.1149399 100.23883951 99.31085855 C108.42517128 107.4860199 116.60867166 115.66401301 124.79192853 123.84225214 C138.77957547 137.82122361 152.7693313 151.79808163 166.76145935 165.77256775 C167.64753406 166.65753306 167.64753406 166.65753306 168.55150926 167.56037647 C169.63482642 168.64232573 170.71815898 169.72425956 171.80151141 170.8061735 C173.20112429 172.20399884 174.60056622 173.60199535 176 175 C176.94370138 175.90231259 177.88740276 176.80462519 178.85970116 177.73428059 C181 180 181 180 181 182 C181.66 182 182.32 182 183 182 C183 182.66 183 183.32 183 184 C183.66 184 184.32 184 185 184 C185 184.66 185 185.32 185 186 C185.66 186 186.32 186 187 186 C188.27864647 187.29809284 188.27864647 187.29809284 189.82870483 189.1966095 C195.12335593 195.4145733 200.961532 201.09292304 206.74072266 206.85424805 C208.02448156 208.13772444 209.30801945 209.42142194 210.59135437 210.70532227 C214.0579383 214.17219184 217.52758651 217.63597965 220.99781084 221.09920478 C224.63676564 224.73188086 228.27286251 228.36741533 231.90927124 232.00263977 C238.79302371 238.88328976 245.67931923 245.76138873 252.56654394 252.63856298 C260.39012597 260.45097392 268.21087611 268.26621712 276.0313828 276.0817064 C289.39946736 289.44111609 302.76965654 302.79841639 316.14222717 316.15333557 C316.70696003 316.71732884 317.27169289 317.2813221 317.85353887 317.86240608 C318.88852517 318.89602558 319.92352735 319.92962918 320.9585501 320.96321219 C322.30582224 322.3086858 323.65291478 323.65433925 325 325 C325.93900335 325.89761456 326.87800671 326.79522913 327.84546471 327.72004414 C330 330 330 330 330 332 C330.66 332 331.32 332 332 332 C333.25326633 333.27382851 333.25326633 333.27382851 334.78358459 335.1534729 C340.30780926 341.64044645 346.42590004 347.54019178 352.46264648 353.54443359 C353.82349906 354.90172518 355.1841138 356.25925527 356.54450989 357.61700439 C359.46067161 360.52664428 362.3783344 363.43476743 365.29714775 366.34174728 C369.90897447 370.93522094 374.51639945 375.53309264 379.12306213 380.13174438 C392.21818723 393.20275843 405.31927882 406.26778285 418.42456055 419.32861328 C425.67274754 426.55229286 432.91736833 433.77952982 440.15814453 441.01063788 C444.74110166 445.58703884 449.32853624 450.15888951 453.91929138 454.7274673 C456.7642403 457.56073013 459.60504151 460.39812269 462.44465446 463.23673248 C463.76681238 464.55673385 465.09070308 465.87500209 466.41640091 467.19144821 C468.218239 468.98119084 470.01390414 470.7769017 471.80809021 472.5743103 C472.34026624 473.09997853 472.87244226 473.62564675 473.42074484 474.16724432 C477 477.77178459 477 477.77178459 477 480 C477.66 480 478.32 480 479 480 C479 480.66 479 481.32 479 482 C479.66 482 480.32 482 481 482 C482.25326633 483.27382851 482.25326633 483.27382851 483.78358459 485.1534729 C489.30780926 491.64044645 495.42590004 497.54019178 501.46264648 503.54443359 C502.82349906 504.90172518 504.1841138 506.25925527 505.54450989 507.61700439 C508.46067161 510.52664428 511.3783344 513.43476743 514.29714775 516.34174728 C518.90897447 520.93522094 523.51639945 525.53309264 528.12306213 530.13174438 C541.21818723 543.20275843 554.31927882 556.26778285 567.42456055 569.32861328 C574.67274754 576.55229286 581.91736833 583.77952982 589.15814453 591.01063788 C593.74110166 595.58703884 598.32853624 600.15888951 602.91929138 604.7274673 C605.7642403 607.56073013 608.60504151 610.39812269 611.44465446 613.23673248 C612.76681238 614.55673385 614.09070308 615.87500209 615.41640091 617.19144821 C617.218239 618.98119084 619.01390414 620.7769017 620.80809021 622.5743103 C621.34026624 623.09997853 621.87244226 623.62564675 622.42074484 624.16724432 C626 627.77178459 626 627.77178459 626 630 C626.66 630 627.32 630 628 630 C628 630.66 628 631.32 628 632 C628.66 632 629.32 632 630 632 C631.21899414 633.24243164 631.21899414 633.24243164 632.72265625 635.09765625 C636.23162357 639.22526442 639.96844912 643.05588637 643.80859375 646.87109375 C644.42368805 647.48288483 645.03878235 648.0946759 645.67251587 648.7250061 C647.59224164 650.63113499 649.5144574 652.53471773 651.4375 654.4375 C654.00153083 656.97502922 656.56228341 659.51580167 659.12109375 662.05859375 C659.71160019 662.64080185 660.30210663 663.22300995 660.9105072 663.82286072 C662.2925931 665.19646066 663.64923119 666.595592 665 668 C665 668.33 665 668.66 665 669 C225.11 669 -214.78 669 -668 669 C-661.25000001 661.12500001 -661.25000001 661.12500001 -657.71471018 657.59051168 C-656.90982783 656.78338204 -656.10494548 655.9762524 -655.27567276 655.14466429 C-653.9706552 653.84358724 -653.9706552 653.84358724 -652.63927364 652.51622581 C-651.69047959 651.56669107 -650.7419051 650.61693688 -649.793529 649.66698468 C-647.1899342 647.06033123 -644.58324183 644.45679497 -641.9760281 641.85376191 C-639.1389382 639.02011444 -636.30476079 636.18355642 -633.47021157 633.34736788 C-628.50293409 628.37801854 -623.53380431 623.41052749 -618.56345558 618.44425011 C-611.17247867 611.0593105 -603.78437316 603.67150326 -596.39685318 596.28310571 C-583.96826157 583.85320029 -571.5373438 571.42562367 -559.10510063 558.99937057 C-546.79184354 546.69203096 -534.47962147 534.38365744 -522.16877937 522.07390213 C-521.40326767 521.30845916 -520.63775596 520.54301619 -519.84904693 519.75437798 C-515.96129505 515.86696445 -512.07356165 511.97953243 -508.18583537 508.0920933 C-480.64420049 480.55255915 -453.1002478 453.01534424 -425.55493164 425.47949219 C-398.80701512 398.74075515 -372.0601453 372.00097179 -345.31469727 345.25976562 C-344.49068882 344.43588871 -343.66668037 343.61201179 -342.81770198 342.7631689 C-334.54212264 334.48890816 -326.26656467 326.21462605 -317.99102243 317.94032821 C-301.11971262 301.07155624 -284.24826132 284.20292578 -267.37672424 267.3343811 C-266.60063366 266.55842781 -265.82454307 265.78247451 -265.02493459 264.98300748 C-218.57157674 218.53789621 -172.1155341 172.09547041 -125.65885055 125.6536857 C-123.65001214 123.64549152 -121.64117608 121.63729497 -119.63233989 119.62909856 C-118.28536026 118.28255077 -116.93837605 116.93600757 -115.59139165 115.58946455 C-114.04323163 114.0417989 -112.49540751 112.49379713 -110.94802999 110.94534914 C-109.76340702 109.76235643 -108.57645255 108.58168443 -107.38531048 107.40525599 C-105.50310252 105.54451125 -103.79706321 103.73408282 -102.1875 101.625 C-100.34518111 99.41421734 -98.625935 97.75805486 -96.44787598 95.91343689 C-91.63130588 91.73862659 -87.14224999 87.27521424 -82.64648438 82.76000977 C-81.74798767 81.86165909 -80.84949097 80.96330841 -79.92376709 80.03773499 C-77.48405905 77.59831135 -75.04742508 75.15583874 -72.61137199 72.71276593 C-70.05607891 70.15117953 -67.49791317 67.59246507 -64.94006348 65.03343201 C-60.10757887 60.1978516 -55.27764687 55.35973002 -50.44864893 50.52066797 C-44.94632873 45.00713199 -39.44113512 39.49646886 -33.93570995 33.98603356 C-22.62062842 22.66052732 -11.30912284 11.33145652 0 0 Z " fill="#587ADE" transform="translate(1502,998)"/>
<path d="M0 0 C1.12853772 -0.00576922 2.25707544 -0.01153844 3.41981128 -0.01748249 C7.22905687 -0.03079404 11.03726117 -0.00822329 14.84645367 0.01396656 C17.5937745 0.01456994 20.34106452 0.00762384 23.08837622 0.00102073 C29.07563842 -0.00935472 35.06265237 -0.001118 41.04988575 0.01921177 C49.95266203 0.04935746 58.85528143 0.05089357 67.75809944 0.04650183 C82.73316318 0.03992824 97.70811672 0.05665476 112.68314838 0.08658886 C127.51364785 0.11615817 142.34410143 0.13541538 157.17463017 0.14085293 C158.09620708 0.14119663 159.01778399 0.14154032 159.96728747 0.14189444 C164.6473725 0.14358607 169.32745757 0.145093 174.00754269 0.14652882 C207.17007939 0.15703525 240.33255611 0.19073421 273.49505901 0.23804188 C305.71510785 0.2839521 337.93514028 0.31937601 370.15521526 0.34058094 C371.64454959 0.34156739 371.64454959 0.34156739 373.16397148 0.34257376 C383.13483421 0.34916627 393.10569706 0.35554536 403.07656003 0.36176806 C423.38896808 0.37444966 443.70137506 0.38855592 464.01378155 0.40352345 C465.41472707 0.40455312 465.41472707 0.40455312 466.84397453 0.4056036 C529.22907778 0.45161907 591.61414771 0.53084649 653.9992094 0.61523914 C648.26871147 7.6183258 641.84039891 13.91410592 635.44415951 20.29892349 C634.14655094 21.59787937 632.84916096 22.89705362 631.55196935 24.19642588 C627.97990015 27.77322426 624.40472245 31.34690138 620.82903517 34.9200823 C616.94215928 38.8053257 613.05817087 42.69345384 609.17381263 46.58121401 C602.36343081 53.39675201 595.55118 60.21041746 588.73770618 67.02286434 C579.08019253 76.67892594 569.42520267 86.3375075 559.77091536 95.99679474 C540.15974289 115.61810894 520.54503232 135.23588363 500.92908153 154.85242068 C498.81818148 156.96338548 496.70728302 159.07435187 494.59638596 161.18531966 C494.07257461 161.70914802 493.54876326 162.23297637 493.00907884 162.77267831 C481.40280511 174.37936045 469.79742218 185.98693311 458.19219741 197.59466405 C453.41416708 202.37372271 448.6361176 207.15276223 443.85807204 211.93180567 C443.33015534 212.45983297 442.80223863 212.98786026 442.25832445 213.53188838 C412.00985084 243.78668532 381.76027858 274.04038342 351.50841427 304.29179001 C350.37641558 305.42377292 349.2444169 306.55575586 348.11241825 307.68773881 C343.00146022 312.79862346 337.8904948 317.90950072 332.77952729 323.02037589 C330.50037797 325.29948409 328.22122915 327.57859277 325.94208037 329.8577015 C324.80132663 330.99843485 323.66057258 332.13916788 322.51981821 333.2799006 C286.42471118 369.37432694 250.33360978 405.47275401 214.24579144 441.57446766 C205.1486441 450.67511586 196.05148102 459.77574832 186.95423031 468.87629318 C186.39411684 469.43660953 185.83400337 469.99692587 185.25691676 470.5742215 C168.00379803 487.83355163 150.74945802 505.09166008 133.49386501 522.34851646 C132.68168703 523.16075437 132.68168703 523.16075437 131.85310141 523.98940113 C119.9692105 535.87414515 108.08502375 547.75859331 96.20056383 559.64276834 C91.94863669 563.89459899 87.69673177 568.14645186 83.44483778 572.39831565 C82.38703916 573.45610636 81.3292394 574.51389591 80.27143849 575.57168432 C63.39520506 592.4477412 46.52191549 609.32673776 29.65008262 626.207194 C12.668243 643.19766917 -4.31680253 660.18493262 -21.30626763 677.16778294 C-31.85444951 687.71185919 -42.39992945 698.25861855 -52.94094868 708.80985552 C-59.65440005 715.5292673 -66.37143067 722.24508641 -73.09147163 728.95790797 C-76.92861934 732.79114064 -80.76411517 736.62598943 -84.59529445 740.46518814 C-88.07275694 743.94986647 -91.55469339 747.4300049 -95.04043312 750.90640294 C-96.30029823 752.16453054 -97.55844891 753.42437759 -98.81477156 754.68604259 C-100.50711368 756.38510466 -102.20537499 758.07800967 -103.90539145 759.76938766 C-104.39871962 760.26761545 -104.89204779 760.76584324 -105.4003253 761.27916884 C-108.77247985 764.61523914 -108.77247985 764.61523914 -111.0007906 764.61523914 C-111.3720406 765.48148914 -111.3720406 765.48148914 -111.7507906 766.36523914 C-113.18379048 768.94463894 -114.78503736 770.67645506 -117.0007906 772.61523914 C-117.6607906 772.61523914 -118.3207906 772.61523914 -119.0007906 772.61523914 C-119.6607906 773.93523914 -120.3207906 775.25523914 -121.0007906 776.61523914 C-123.0632906 776.99023914 -123.0632906 776.99023914 -126.0007906 776.61523914 C-129.32530287 774.30377568 -132.14505038 771.47097935 -135.0007906 768.61523914 C-135.8257906 768.32648914 -136.6507906 768.03773914 -137.5007906 767.74023914 C-140.47917303 766.39996705 -140.86176418 765.5942313 -142.0007906 762.61523914 C-143.3760392 759.39546279 -144.91751942 757.57197862 -147.6257906 755.36523914 C-148.57325153 754.58406727 -148.57325153 754.58406727 -149.5398531 753.78711414 C-150.26301716 753.20703602 -150.26301716 753.20703602 -151.0007906 752.61523914 C-151.3307906 753.27523914 -151.6607906 753.93523914 -152.0007906 754.61523914 C-154.0007906 751.61523914 -154.0007906 751.61523914 -153.6257906 748.92773914 C-153.4195406 748.16461414 -153.2132906 747.40148914 -153.0007906 746.61523914 C-154.3207906 747.60523914 -155.6407906 748.59523914 -157.0007906 749.61523914 C-157.2276656 748.72836414 -157.4545406 747.84148914 -157.6882906 746.92773914 C-159.19228535 743.13194286 -160.87449489 741.20777705 -164.0007906 738.61523914 C-164.9907906 738.61523914 -165.9807906 738.61523914 -167.0007906 738.61523914 C-167.9907906 737.95523914 -168.9807906 737.29523914 -170.0007906 736.61523914 C-169.6707906 735.29523914 -169.3407906 733.97523914 -169.0007906 732.61523914 C-169.6607906 732.61523914 -170.3207906 732.61523914 -171.0007906 732.61523914 C-172.87082159 730.38472025 -174.53935641 728.03825522 -176.24688435 725.68164539 C-177.91329404 723.3562685 -177.91329404 723.3562685 -181.0007906 722.61523914 C-181.6607906 721.62523914 -182.3207906 720.63523914 -183.0007906 719.61523914 C-183.9907906 720.27523914 -184.9807906 720.93523914 -186.0007906 721.61523914 C-186.0007906 720.62523914 -186.0007906 719.63523914 -186.0007906 718.61523914 C-187.25281808 715.50058949 -188.90598131 713.48896957 -191.3132906 711.17773914 C-191.93848591 710.56930164 -192.56368122 709.96086414 -193.20782185 709.33398914 C-193.79950153 708.76680164 -194.39118122 708.19961414 -195.0007906 707.61523914 C-198.72771253 703.98149026 -202.11967281 700.18438487 -205.45000935 696.18945789 C-205.96176716 695.66996571 -206.47352497 695.15047352 -207.0007906 694.61523914 C-207.6607906 694.61523914 -208.3207906 694.61523914 -209.0007906 694.61523914 C-210.5867281 693.00586414 -210.5867281 693.00586414 -212.3757906 690.86523914 C-217.64476623 684.65393695 -217.64476623 684.65393695 -224.0007906 679.61523914 C-224.9907906 679.61523914 -225.9807906 679.61523914 -227.0007906 679.61523914 C-227.0007906 678.29523914 -227.0007906 676.97523914 -227.0007906 675.61523914 C-228.31280233 674.05274105 -228.31280233 674.05274105 -230.0007906 672.61523914 C-230.4957906 671.89336414 -230.9907906 671.17148914 -231.5007906 670.42773914 C-231.9957906 669.82961414 -232.4907906 669.23148914 -233.0007906 668.61523914 C-233.9907906 668.61523914 -234.9807906 668.61523914 -236.0007906 668.61523914 C-236.36237263 667.7625243 -236.36237263 667.7625243 -236.73125935 666.89258289 C-238.25047147 664.16735007 -240.07498041 662.34833575 -242.3132906 660.17773914 C-243.52178669 658.99631336 -243.52178669 658.99631336 -244.75469685 657.79102039 C-245.49590778 657.07301258 -246.23711872 656.35500477 -247.0007906 655.61523914 C-250.33412393 652.28190581 -253.66745726 648.94857248 -257.0007906 645.61523914 C-257.7432906 644.89336414 -258.4857906 644.17148914 -259.2507906 643.42773914 C-261.0007906 641.61523914 -261.0007906 641.61523914 -262.0007906 639.61523914 C-262.9907906 639.61523914 -263.9807906 639.61523914 -265.0007906 639.61523914 C-266.35357175 637.62834183 -267.68647365 635.62778697 -269.0007906 633.61523914 C-269.9907906 633.28523914 -270.9807906 632.95523914 -272.0007906 632.61523914 C-272.2895406 631.99648914 -272.5782906 631.37773914 -272.8757906 630.74023914 C-273.87628132 628.40198262 -273.87628132 628.40198262 -276.4382906 627.17773914 C-279.46211571 625.33394334 -280.26237351 623.65746904 -282.0007906 620.61523914 C-283.62915798 618.91113374 -285.28848812 617.23498473 -287.0007906 615.61523914 C-287.6607906 615.94523914 -288.3207906 616.27523914 -289.0007906 616.61523914 C-289.0832906 615.85211414 -289.1657906 615.08898914 -289.2507906 614.30273914 C-290.1766344 610.98513219 -291.10666321 610.38387255 -294.0007906 608.61523914 C-294.8464156 608.07898914 -295.6920406 607.54273914 -296.5632906 606.99023914 C-299.01734273 605.50378808 -299.01734273 605.50378808 -302.0007906 604.61523914 C-301.6707906 603.62523914 -301.3407906 602.63523914 -301.0007906 601.61523914 C-302.38624642 600.22978332 -303.78290329 598.85547253 -305.1882906 597.49023914 C-308.09739108 594.5897967 -310.76835516 591.49453789 -313.45000935 588.38477039 C-315.79682933 585.6345245 -315.79682933 585.6345245 -318.8757906 583.86523914 C-321.0007906 582.61523914 -321.0007906 582.61523914 -322.8132906 579.86523914 C-325.39671596 576.02700717 -328.40200442 573.46596303 -332.0007906 570.61523914 C-332.3307906 571.27523914 -332.6607906 571.93523914 -333.0007906 572.61523914 C-333.3720406 571.56336414 -333.7432906 570.51148914 -334.1257906 569.42773914 C-335.9139784 565.20420984 -338.40238587 563.38900945 -342.0007906 560.61523914 C-342.5576656 559.85211414 -343.1145406 559.08898914 -343.6882906 558.30273914 C-344.1214156 557.74586414 -344.5545406 557.18898914 -345.0007906 556.61523914 C-345.9907906 556.61523914 -346.9807906 556.61523914 -348.0007906 556.61523914 C-348.2586031 556.04289539 -348.5164156 555.47055164 -348.7820406 554.88086414 C-350.11445002 552.40394919 -351.65135178 550.48112254 -353.5007906 548.36523914 C-354.41344685 547.30562977 -354.41344685 547.30562977 -355.3445406 546.22461414 C-356.85495427 544.3829441 -356.85495427 544.3829441 -359.0007906 544.61523914 C-360.66745726 542.61523914 -362.33412393 540.61523914 -364.0007906 538.61523914 C-364.6607906 538.61523914 -365.3207906 538.61523914 -366.0007906 538.61523914 C-366.3307906 537.29523914 -366.6607906 535.97523914 -367.0007906 534.61523914 C-367.9907906 534.61523914 -368.9807906 534.61523914 -370.0007906 534.61523914 C-370.3307906 533.29523914 -370.6607906 531.97523914 -371.0007906 530.61523914 C-371.6607906 530.61523914 -372.3207906 530.61523914 -373.0007906 530.61523914 C-374.6570406 529.00586414 -374.6570406 529.00586414 -376.5007906 526.86523914 C-377.1092281 526.16914539 -377.7176656 525.47305164 -378.3445406 524.75586414 C-379.88056022 522.77063123 -380.97318719 520.8965187 -382.0007906 518.61523914 C-382.9907906 518.61523914 -383.9807906 518.61523914 -385.0007906 518.61523914 C-386.37614398 516.64389929 -387.70290104 514.63841992 -389.0007906 512.61523914 C-392.44690533 508.77387396 -392.44690533 508.77387396 -397.0007906 506.61523914 C-398.6492281 504.90820789 -398.6492281 504.90820789 -400.3757906 502.80273914 C-403.02440999 499.67050772 -405.66618592 497.04040618 -409.0007906 494.61523914 C-408.6707906 493.29523914 -408.3407906 491.97523914 -408.0007906 490.61523914 C-408.9907906 490.94523914 -409.9807906 491.27523914 -411.0007906 491.61523914 C-416.0007906 486.61523914 -416.0007906 486.61523914 -418.1257906 484.42773914 C-420.17902762 482.3625993 -422.32530972 480.47781677 -424.5632906 478.61523914 C-427.44306943 476.18328769 -429.69736451 473.60969306 -432.0007906 470.61523914 C-432.8464156 469.76961414 -433.6920406 468.92398914 -434.5632906 468.05273914 C-438.86745726 463.74857248 -438.86745726 463.74857248 -440.0007906 461.61523914 C-439.1257906 458.99023914 -439.1257906 458.99023914 -438.0007906 456.61523914 C-438.3307906 455.95523914 -438.6607906 455.29523914 -439.0007906 454.61523914 C-439.7226656 455.33711414 -440.4445406 456.05898914 -441.1882906 456.80273914 C-442.1164156 457.73086414 -443.0445406 458.65898914 -444.0007906 459.61523914 C-444.8876656 460.52273914 -445.7745406 461.43023914 -446.6882906 462.36523914 C-449.0007906 464.61523914 -449.0007906 464.61523914 -451.0007906 465.61523914 C-449.58004735 462.36962614 -447.86316378 460.25262324 -445.33282185 457.78711414 C-444.23937458 456.71010242 -444.23937458 456.71010242 -443.12383747 455.61133289 C-442.361357 454.87012196 -441.59887653 454.12891102 -440.8132906 453.36523914 C-435.8806639 448.54812062 -431.11808291 443.69479852 -426.62456989 438.46387196 C-424.21024629 435.71522388 -421.61910333 433.16766056 -419.0007906 430.61523914 C-415.71405873 427.37308687 -412.49320724 424.13572931 -409.5007906 420.61523914 C-406.02602537 416.52728006 -402.22128248 412.80851078 -398.40752888 409.04150867 C-395.02998199 405.68941269 -391.85830163 402.23309358 -388.7742281 398.60742664 C-385.80263351 395.26929175 -382.57734585 392.18486881 -379.3992281 389.04492664 C-377.38094329 387.00034497 -375.48579542 384.92687896 -373.6257906 382.74023914 C-370.58648315 379.18237687 -367.3271504 375.90082224 -364.0007906 372.61523914 C-360.71610748 369.37072336 -357.49345033 366.1360153 -354.5007906 362.61523914 C-351.02669566 358.52806863 -347.22277681 354.80994917 -343.40972614 351.04370594 C-340.00976491 347.6693927 -336.81308167 344.19026734 -333.70782185 340.54102039 C-331.72479265 338.30387304 -329.62885673 336.21469263 -327.5007906 334.11523914 C-324.81752966 331.46793481 -322.24822159 328.80426971 -319.8132906 325.92773914 C-316.40919057 321.94964567 -312.71952402 318.29523576 -309.0007906 314.61523914 C-304.74731485 310.40597833 -300.63698403 306.17499189 -296.77032185 301.60352039 C-294.00217225 298.49317129 -291.01185119 295.60596929 -288.04913044 292.68311024 C-284.80029149 289.46109349 -281.7761261 286.12156782 -278.80938435 282.64258289 C-276.63120567 280.20095281 -274.32831052 277.91475883 -272.0007906 275.61523914 C-269.11089232 272.76000231 -266.31627315 269.90023719 -263.6882906 266.80273914 C-259.95202384 262.4274909 -255.85383963 258.44179733 -251.76592731 254.39990711 C-248.2570715 250.9153691 -244.93933108 247.34428811 -241.73907185 243.57227039 C-238.78232256 240.24343581 -235.56534236 237.17300951 -232.3992281 234.04492664 C-230.38094329 232.00034497 -228.48579542 229.92687896 -226.6257906 227.74023914 C-223.58648293 224.18237661 -220.32714714 220.90082527 -217.0007906 217.61523914 C-213.73695809 214.39126416 -210.53248874 211.18006014 -207.5632906 207.67773914 C-203.87535809 203.33739597 -199.80984517 199.39833834 -195.76324177 195.39722157 C-192.2769257 191.93504966 -188.98439178 188.386948 -185.8054781 184.63867664 C-183.02293731 181.51885818 -180.02395034 178.61790221 -177.04937458 175.68335438 C-173.80045584 172.46125388 -170.77620138 169.12165611 -167.80938435 165.64258289 C-165.63120567 163.20095281 -163.32831052 160.91475883 -161.0007906 158.61523914 C-158.09025258 155.73966255 -155.27655038 152.85649821 -152.6257906 149.74023914 C-149.58648293 146.18237661 -146.32714714 142.90082527 -143.0007906 139.61523914 C-139.73695809 136.39126416 -136.53248874 133.18006014 -133.5632906 129.67773914 C-129.87602724 125.3381835 -125.81133737 121.39978089 -121.76543903 117.39941883 C-118.2567449 113.9150484 -114.93918005 110.34411009 -111.73907185 106.57227039 C-108.78110517 103.24206522 -105.56271141 100.17042028 -102.39532185 97.04102039 C-100.39818169 95.01781642 -98.52588376 92.96863679 -96.6882906 90.80273914 C-92.86184065 86.31401902 -88.65516661 82.21716514 -84.44292927 78.09448719 C-82.00758819 75.69664063 -79.90338944 73.46913741 -78.0007906 70.61523914 C-77.3407906 70.61523914 -76.6807906 70.61523914 -76.0007906 70.61523914 C-75.68174763 69.80312977 -75.68174763 69.80312977 -75.35625935 68.97461414 C-73.5105913 65.76198157 -70.96113086 63.40976481 -68.3132906 60.86523914 C-64.93950656 57.56314242 -61.61177125 54.28818719 -58.5632906 50.67773914 C-54.87468894 46.33660845 -50.80835302 42.39689573 -46.7610445 38.3950243 C-43.29708936 34.95503426 -40.02961676 31.4297897 -36.87188435 27.70508289 C-33.86410899 24.34566783 -30.62549816 21.21989477 -27.41827106 18.05225086 C-23.98119354 14.64122003 -20.71265617 11.14378291 -17.59844685 7.43164539 C-16.807607 6.5325243 -16.807607 6.5325243 -16.0007906 5.61523914 C-15.36973024 4.76546507 -14.73866989 3.915691 -14.08848649 3.0401662 C-9.54037024 -0.53170439 -5.63261067 -0.07021058 0 0 Z M-397.0007906 502.61523914 C-397.0007906 503.27523914 -397.0007906 503.93523914 -397.0007906 504.61523914 C-396.3407906 504.28523914 -395.6807906 503.95523914 -395.0007906 503.61523914 C-395.6607906 503.28523914 -396.3207906 502.95523914 -397.0007906 502.61523914 Z M-385.0007906 514.61523914 C-384.0007906 516.61523914 -384.0007906 516.61523914 -384.0007906 516.61523914 Z M-373.0007906 526.61523914 C-373.0007906 527.27523914 -373.0007906 527.93523914 -373.0007906 528.61523914 C-372.3407906 528.28523914 -371.6807906 527.95523914 -371.0007906 527.61523914 C-371.6607906 527.28523914 -372.3207906 526.95523914 -373.0007906 526.61523914 Z M-359.0007906 540.61523914 C-358.0007906 542.61523914 -358.0007906 542.61523914 -358.0007906 542.61523914 Z M-347.0007906 552.61523914 C-347.0007906 553.27523914 -347.0007906 553.93523914 -347.0007906 554.61523914 C-346.3407906 554.28523914 -345.6807906 553.95523914 -345.0007906 553.61523914 C-345.6607906 553.28523914 -346.3207906 552.95523914 -347.0007906 552.61523914 Z M-305.0007906 594.61523914 C-304.0007906 596.61523914 -304.0007906 596.61523914 -304.0007906 596.61523914 Z M-279.0007906 620.61523914 C-279.0007906 621.27523914 -279.0007906 621.93523914 -279.0007906 622.61523914 C-278.3407906 622.28523914 -277.6807906 621.95523914 -277.0007906 621.61523914 C-277.6607906 621.28523914 -278.3207906 620.95523914 -279.0007906 620.61523914 Z M-273.0007906 626.61523914 C-273.0007906 627.27523914 -273.0007906 627.93523914 -273.0007906 628.61523914 C-272.3407906 628.28523914 -271.6807906 627.95523914 -271.0007906 627.61523914 C-271.6607906 627.28523914 -272.3207906 626.95523914 -273.0007906 626.61523914 Z M-249.0007906 650.61523914 C-248.0007906 652.61523914 -248.0007906 652.61523914 -248.0007906 652.61523914 Z M-235.0007906 664.61523914 C-235.0007906 665.27523914 -235.0007906 665.93523914 -235.0007906 666.61523914 C-234.3407906 666.28523914 -233.6807906 665.95523914 -233.0007906 665.61523914 C-233.6607906 665.28523914 -234.3207906 664.95523914 -235.0007906 664.61523914 Z M-209.0007906 690.61523914 C-209.0007906 691.27523914 -209.0007906 691.93523914 -209.0007906 692.61523914 C-208.3407906 692.28523914 -207.6807906 691.95523914 -207.0007906 691.61523914 C-207.6607906 691.28523914 -208.3207906 690.95523914 -209.0007906 690.61523914 Z M-197.0007906 702.61523914 C-196.0007906 704.61523914 -196.0007906 704.61523914 -196.0007906 704.61523914 Z M-185.0007906 714.61523914 C-185.0007906 715.27523914 -185.0007906 715.93523914 -185.0007906 716.61523914 C-184.3407906 716.28523914 -183.6807906 715.95523914 -183.0007906 715.61523914 C-183.6607906 715.28523914 -184.3207906 714.95523914 -185.0007906 714.61523914 Z M-166.0007906 734.61523914 C-165.6707906 735.27523914 -165.3407906 735.93523914 -165.0007906 736.61523914 C-164.3407906 736.28523914 -163.6807906 735.95523914 -163.0007906 735.61523914 C-163.9907906 735.28523914 -164.9807906 734.95523914 -166.0007906 734.61523914 Z " fill="#F3831B" transform="translate(1513.0007905960083,332.3847608566284)"/>
<path d="M0 0 C220.77 0 441.54 0 669 0 C662.23630038 7.89098289 662.23630038 7.89098289 659.66796875 10.6484375 C659.10150635 11.25679443 658.53504395 11.86515137 657.95141602 12.49194336 C657.36932373 13.11335205 656.78723145 13.73476074 656.1875 14.375 C655.26892212 15.35835327 655.26892212 15.35835327 654.33178711 16.36157227 C650.28243453 20.67949619 646.14243352 24.88798599 641.92578125 29.04296875 C640.11239258 30.8857836 638.42497142 32.78160293 636.75 34.75 C632.99076416 39.14163066 628.87725927 43.14957589 624.76977539 47.21069336 C621.21603358 50.73975997 617.84823192 54.35652685 614.60546875 58.17578125 C612.26448284 60.8357336 609.73562913 63.2897374 607.1875 65.75 C605.29263476 67.69900425 603.52297445 69.69158068 601.75 71.75 C597.40190827 76.75633163 592.6919796 81.35959089 587.9609375 86 C583.98924924 89.92568414 580.23410521 93.95652071 576.58984375 98.1875 C574.49900718 100.57115643 572.27112315 102.78864325 570 105 C567.11010172 107.85523683 564.31548255 110.71500196 561.6875 113.8125 C558.477611 117.57134863 555.01210165 121.02742679 551.5 124.5 C547.44534466 128.50912299 543.56021844 132.55864508 539.87109375 136.91015625 C536.85987172 140.27342094 533.61725871 143.40256368 530.40649414 146.57397461 C527.02902798 149.92598648 523.85743526 153.38223464 520.7734375 157.0078125 C517.80306221 160.34457769 514.57918589 163.42778176 511.40234375 166.56640625 C509.36285627 168.63242365 507.444922 170.73005549 505.5625 172.9375 C502.69827606 176.28925142 499.63665155 179.40555739 496.5 182.5 C493.42595499 185.53284488 490.42000781 188.57939378 487.625 191.875 C484.4387061 195.61543197 480.99120315 199.04804038 477.5 202.5 C473.4453483 206.50912579 469.56021848 210.55864504 465.87109375 214.91015625 C462.85987172 218.27342094 459.61725871 221.40256368 456.40649414 224.57397461 C453.02902798 227.92598648 449.85743526 231.38223464 446.7734375 235.0078125 C444.60886582 237.43937981 442.31570547 239.71211081 440 242 C437.11010172 244.85523683 434.31548255 247.71500196 431.6875 250.8125 C427.95123325 255.18774824 423.85304903 259.17344181 419.76513672 263.21533203 C416.2562809 266.69987005 412.93854049 270.27095104 409.73828125 274.04296875 C406.78274937 277.37043273 403.56718276 280.43964049 400.40234375 283.56640625 C398.36285627 285.63242365 396.444922 287.73005549 394.5625 289.9375 C391.69827587 293.28925164 388.63664779 296.40555399 385.5 299.5 C382.4468302 302.51231105 379.45927588 305.53548902 376.6875 308.8125 C372.7635892 313.42048242 368.42341311 317.60183078 364.125 321.85546875 C360.46286487 325.49407838 356.97341693 329.20268882 353.63671875 333.14453125 C350.96463328 336.17374509 348.05012537 338.95727127 345.17578125 341.79296875 C343.25502616 343.74131099 341.45957195 345.72999209 339.6875 347.8125 C336.62499795 351.3889884 333.34719384 354.69389493 330 358 C326.71531368 361.24451281 323.49265951 364.4792241 320.5 368 C317.02523478 372.08795909 313.22049188 375.80672837 309.40673828 379.57373047 C306.02919139 382.92582646 302.85751104 386.38214556 299.7734375 390.0078125 C296.80184291 393.34594739 293.57655526 396.43037033 290.3984375 399.5703125 C288.3801527 401.61489417 286.48500482 403.68836018 284.625 405.875 C281.58569255 409.43286227 278.3263598 412.71441691 275 416 C271.71531689 419.24451578 268.49265974 422.47922384 265.5 426 C262.5073396 429.52077694 259.2846735 432.7554753 256 436 C252.73617385 439.22398087 249.53169859 442.43517847 246.5625 445.9375 C242.87523665 450.27705564 238.81054677 454.21545826 234.76464844 458.21582031 C231.25595431 461.70019074 227.93838946 465.27112905 224.73828125 469.04296875 C222.58739361 471.46452989 220.30388485 473.72374795 218 476 C215.15136993 478.81456574 212.39470688 481.62735252 209.8125 484.6875 C205.65143152 489.56359695 201.03639423 493.98819515 196.48535156 498.49511719 C192.66995946 502.28767402 189.00774607 506.13405005 185.53515625 510.24609375 C183.14297877 512.97914131 180.52807091 515.47994535 177.94140625 518.02734375 C176.18210761 519.81496108 174.55490464 521.64726126 172.9375 523.5625 C169.33883972 527.75955183 165.42541516 531.61263563 161.5 535.5 C157.06961846 539.8875604 152.75692936 544.27786725 148.734375 549.046875 C145.97936009 552.14936927 142.99596427 555.02409896 140.04370117 557.93676758 C137.4382993 560.52070741 134.93924473 563.14235521 132.5625 565.9375 C129.06289503 570.04426535 125.24017991 573.78724806 121.40478516 577.57568359 C118.04955443 580.90566329 114.90282125 584.33922489 111.83984375 587.94140625 C109.04164208 591.07230281 106.03226344 593.98829695 103.04443359 596.93603516 C100.43879261 599.52022318 97.93946891 602.14209158 95.5625 604.9375 C92.06289503 609.04426535 88.24017991 612.78724806 84.40478516 616.57568359 C81.04955443 619.90566329 77.90282125 623.33922489 74.83984375 626.94140625 C72.04164208 630.07230281 69.03226344 632.98829695 66.04443359 635.93603516 C63.43879261 638.52022318 60.93946891 641.14209158 58.5625 643.9375 C55.54647129 647.47679152 52.30551453 650.73493845 49 654 C45.75702837 657.20342923 42.57063836 660.3910724 39.625 663.875 C35.72605427 668.46538438 31.40207581 672.62294256 27.12475586 676.85571289 C23.46665229 680.49031372 19.97925926 684.19331265 16.6484375 688.1328125 C13.92287281 691.2200635 10.95131711 694.05954713 8.015625 696.9453125 C5.84190409 699.09034949 5.84190409 699.09034949 3.5625 702.0625 C2.7890625 703.0215625 2.7890625 703.0215625 2 704 C1.34 704 0.68 704 0 704 C0 471.68 0 239.36 0 0 Z " fill="#2788D9" transform="translate(833,333)"/>
<path d="M0 0 C0.61488281 0.46535156 1.22976563 0.93070313 1.86328125 1.41015625 C3.27492509 2.46050185 4.71704677 3.47120216 6.1875 4.4375 C8 6 8 6 8.234375 7.80859375 C9.41841073 11.19759399 12.2115773 12.67008158 15.0625 14.625 C17.09448853 16.03655162 19.04768326 17.47466052 21 19 C21 19.66 21 20.32 21 21 C22.93530766 22.82729049 24.99047623 24.46895378 27.0546875 26.1484375 C29.02285767 28.02175609 29.90814471 29.54460712 31 32 C32.41666667 33.58333333 32.41666667 33.58333333 34 35 C35 36 36 37 37 38 C37.556875 38.515625 38.11375 39.03125 38.6875 39.5625 C40 41 40 41 40 43 C40.556875 43.20625 41.11375 43.4125 41.6875 43.625 C44.84716804 45.50372154 46.65838711 48.19006453 49 51 C50.32567199 51.68177416 51.65753688 52.35191436 53 53 C53.28875 53.598125 53.5775 54.19625 53.875 54.8125 C55.53687899 58.04393136 58.18411052 59.75878184 61 62 C62.875 63.6875 62.875 63.6875 64 65 C64 65.66 64 66.32 64 67 C64.556875 67.20625 65.11375 67.4125 65.6875 67.625 C68.84716804 69.50372154 70.65838711 72.19006453 73 75 C74.32567199 75.68177416 75.65753688 76.35191436 77 77 C77.66666667 78.33333333 78.33333333 79.66666667 79 81 C79.66 81.33 80.32 81.66 81 82 C83.52845528 83.26422764 83.76422764 84.52845528 85 87 C85.680625 87.33 86.36125 87.66 87.0625 88 C87.701875 88.33 88.34125 88.66 89 89 C89.33333333 90.33333333 89.66666667 91.66666667 90 93 C90.5775 93.28875 91.155 93.5775 91.75 93.875 C95.00561785 95.50280893 96.68929481 98.22715377 99 101 C100.32567199 101.68177416 101.65753688 102.35191436 103 103 C103.66666667 104.33333333 104.33333333 105.66666667 105 107 C105.66 107.33 106.32 107.66 107 108 C109.52845528 109.26422764 109.76422764 110.52845528 111 113 C111.66 113.33 112.32 113.66 113 114 C115.52845528 115.26422764 115.76422764 116.52845528 117 119 C117.680625 119.33 118.36125 119.66 119.0625 120 C119.701875 120.33 120.34125 120.66 121 121 C121.2165625 121.99 121.2165625 121.99 121.4375 123 C121.623125 123.66 121.80875 124.32 122 125 C122.825 125.33 123.65 125.66 124.5 126 C125.325 126.33 126.15 126.66 127 127 C127.33333333 128.33333333 127.66666667 129.66666667 128 131 C129.66072849 131.68132451 131.327767 132.34742127 133 133 C133.68486725 134.32407669 134.34870203 135.65909241 135 137 C136.96185416 138.71140469 138.96302383 140.37873325 141 142 C142.875 143.6875 142.875 143.6875 144 145 C144 145.66 144 146.32 144 147 C145.32 147.66 146.64 148.32 148 149 C148 149.66 148 150.32 148 151 C149.65 151.66 151.3 152.32 153 153 C153 153.66 153 154.32 153 155 C153.66 155 154.32 155 155 155 C155 155.66 155 156.32 155 157 C155.66 157 156.32 157 157 157 C157.0825 157.61875 157.165 158.2375 157.25 158.875 C157.77260299 161.13953908 157.77260299 161.13953908 159.75 161.875 C163.00561785 163.50280893 164.68929481 166.22715377 167 169 C168.32567199 169.68177416 169.65753688 170.35191436 171 171 C171.66666667 172.33333333 172.33333333 173.66666667 173 175 C173.66 175.33 174.32 175.66 175 176 C177.52845528 177.26422764 177.76422764 178.52845528 179 181 C179.66 181.33 180.32 181.66 181 182 C183.52845528 183.26422764 183.76422764 184.52845528 185 187 C185.66 187.33 186.32 187.66 187 188 C189 189 189 189 189.875 190.8125 C191.53687899 194.04393136 194.18411052 195.75878184 197 198 C198.875 199.6875 198.875 199.6875 200 201 C200 201.66 200 202.32 200 203 C201.175625 203.37125 201.175625 203.37125 202.375 203.75 C205.50530909 205.24062337 205.54003879 205.99419751 207 209 C208.96185416 210.71140469 210.96302383 212.37873325 213 214 C214.01868662 214.98095748 215.02351983 215.97702078 216 217 C216.495 217.495 216.99 217.99 217.5 218.5 C217.995 218.995 218.49 219.49 219 220 C219.556875 220.515625 220.11375 221.03125 220.6875 221.5625 C222 223 222 223 222 225 C223.2065625 225.37125 223.2065625 225.37125 224.4375 225.75 C225.283125 226.1625 226.12875 226.575 227 227 C227.3721042 228.32303717 227.70630173 229.65737935 228 231 C228.86625 231.433125 228.86625 231.433125 229.75 231.875 C233.00561785 233.50280893 234.68929481 236.22715377 237 239 C238.32567199 239.68177416 239.65753688 240.35191436 241 241 C241.28875 241.598125 241.5775 242.19625 241.875 242.8125 C243.53687899 246.04393136 246.18411052 247.75878184 249 250 C250.875 251.6875 250.875 251.6875 252 253 C252 253.66 252 254.32 252 255 C252.556875 255.20625 253.11375 255.4125 253.6875 255.625 C256.84716804 257.50372154 258.65838711 260.19006453 261 263 C262.32567199 263.68177416 263.65753688 264.35191436 265 265 C265.66666667 266.33333333 266.33333333 267.66666667 267 269 C267.680625 269.33 268.36125 269.66 269.0625 270 C269.701875 270.33 270.34125 270.66 271 271 C271.144375 271.66 271.28875 272.32 271.4375 273 C271.623125 273.66 271.80875 274.32 272 275 C272.825 275.33 273.65 275.66 274.5 276 C275.325 276.33 276.15 276.66 277 277 C277.3721042 278.32303717 277.70630173 279.65737935 278 281 C279.9837767 282.28436734 279.9837767 282.28436734 282 283 C282 283.66 282 284.32 282 285 C282.8353125 285.309375 282.8353125 285.309375 283.6875 285.625 C286.84716804 287.50372154 288.65838711 290.19006453 291 293 C291.7425 293.37125 292.485 293.7425 293.25 294.125 C293.8275 294.41375 294.405 294.7025 295 295 C295.144375 295.66 295.28875 296.32 295.4375 297 C295.623125 297.66 295.80875 298.32 296 299 C297.66072849 299.68132451 299.327767 300.34742127 301 301 C301.68486725 302.32407669 302.34870203 303.65909241 303 305 C304.96185416 306.71140469 306.96302383 308.37873325 309 310 C310.01868662 310.98095748 311.02351983 311.97702078 312 313 C312.495 313.495 312.99 313.99 313.5 314.5 C313.995 314.995 314.49 315.49 315 316 C315.556875 316.433125 316.11375 316.86625 316.6875 317.3125 C318.62635078 319.80530815 318.20379762 321.94303577 318 325 C316 325.875 316 325.875 313 326 C309.26982244 323.81039291 306.05117598 321.05117598 303 318 C302.175 317.71125 301.35 317.4225 300.5 317.125 C297.52161757 315.78472791 297.13902641 314.97899216 296 312 C294.6247514 308.78022365 293.08327117 306.95673948 290.375 304.75 C289.74335937 304.22921875 289.11171875 303.7084375 288.4609375 303.171875 C287.73777344 302.59179688 287.73777344 302.59179688 287 302 C286.67 302.66 286.34 303.32 286 304 C284 301 284 301 284.375 298.3125 C284.684375 297.1678125 284.684375 297.1678125 285 296 C283.68 296.99 282.36 297.98 281 299 C280.773125 298.113125 280.54625 297.22625 280.3125 296.3125 C278.80850525 292.51670371 277.12629571 290.5925379 274 288 C273.01 288 272.02 288 271 288 C270.01 287.34 269.02 286.68 268 286 C268.33 284.68 268.66 283.36 269 282 C268.34 282 267.68 282 267 282 C265.12996901 279.76948111 263.46143418 277.42301608 261.75390625 275.06640625 C260.08749655 272.74102935 260.08749655 272.74102935 257 272 C256.34 271.01 255.68 270.02 255 269 C254.01 269.66 253.02 270.32 252 271 C252 270.01 252 269.02 252 268 C250.74797251 264.88535034 249.09480928 262.87373042 246.6875 260.5625 C246.06230469 259.9540625 245.43710938 259.345625 244.79296875 258.71875 C244.20128906 258.1515625 243.60960937 257.584375 243 257 C239.27307806 253.36625111 235.88111779 249.56914573 232.55078125 245.57421875 C232.03902344 245.05472656 231.52726562 244.53523438 231 244 C230.34 244 229.68 244 229 244 C227.4140625 242.390625 227.4140625 242.390625 225.625 240.25 C220.35602437 234.03869781 220.35602437 234.03869781 214 229 C213.01 229 212.02 229 211 229 C211 227.68 211 226.36 211 225 C209.68798827 223.43750191 209.68798827 223.43750191 208 222 C207.505 221.278125 207.01 220.55625 206.5 219.8125 C206.005 219.214375 205.51 218.61625 205 218 C204.01 218 203.02 218 202 218 C201.63841797 217.14728516 201.63841797 217.14728516 201.26953125 216.27734375 C199.75031912 213.55211092 197.92581019 211.73309661 195.6875 209.5625 C194.88183594 208.77488281 194.07617188 207.98726562 193.24609375 207.17578125 C192.50488281 206.45777344 191.76367188 205.73976563 191 205 C187.66666667 201.66666667 184.33333333 198.33333333 181 195 C180.2575 194.278125 179.515 193.55625 178.75 192.8125 C177 191 177 191 176 189 C175.01 189 174.02 189 173 189 C171.64721885 187.01310269 170.31431695 185.01254782 169 183 C168.01 182.67 167.02 182.34 166 182 C165.566875 181.071875 165.566875 181.071875 165.125 180.125 C164.12450927 177.78674348 164.12450927 177.78674348 161.5625 176.5625 C158.53867489 174.7187042 157.73841708 173.0422299 156 170 C154.37163262 168.2958946 152.71230248 166.61974559 151 165 C150.34 165.33 149.68 165.66 149 166 C148.9175 165.236875 148.835 164.47375 148.75 163.6875 C147.8241562 160.36989304 146.89412739 159.7686334 144 158 C143.154375 157.46375 142.30875 156.9275 141.4375 156.375 C138.98344786 154.88854894 138.98344786 154.88854894 136 154 C136.33 153.01 136.66 152.02 137 151 C135.61454417 149.61454417 134.21788731 148.24023339 132.8125 146.875 C129.90339951 143.97455755 127.23243544 140.87929875 124.55078125 137.76953125 C122.20396127 135.01928536 122.20396127 135.01928536 119.125 133.25 C117 132 117 132 115.1875 129.25 C112.60407463 125.41176803 109.59878618 122.85072388 106 120 C105.67 120.66 105.34 121.32 105 122 C104.62875 120.948125 104.2575 119.89625 103.875 118.8125 C102.08681219 114.5889707 99.59840472 112.77377031 96 110 C95.443125 109.236875 94.88625 108.47375 94.3125 107.6875 C93.879375 107.130625 93.44625 106.57375 93 106 C92.01 106 91.02 106 90 106 C89.61328125 105.14148438 89.61328125 105.14148438 89.21875 104.265625 C87.88634058 101.78871005 86.34943882 99.8658834 84.5 97.75 C83.8915625 97.04359375 83.283125 96.3371875 82.65625 95.609375 C81.14583632 93.76770496 81.14583632 93.76770496 79 94 C77.33333333 92 75.66666667 90 74 88 C73.34 88 72.68 88 72 88 C71.67 86.68 71.34 85.36 71 84 C70.01 84 69.02 84 68 84 C67.67 82.68 67.34 81.36 67 80 C66.34 80 65.68 80 65 80 C63.34375 78.390625 63.34375 78.390625 61.5 76.25 C60.8915625 75.55390625 60.283125 74.8578125 59.65625 74.140625 C58.12023037 72.15539208 57.0276034 70.28127955 56 68 C55.01 68 54.02 68 53 68 C51.62464661 66.02866014 50.29788956 64.02318078 49 62 C45.55388527 58.15863481 45.55388527 58.15863481 41 56 C39.3515625 54.29296875 39.3515625 54.29296875 37.625 52.1875 C34.97638061 49.05526857 32.33460467 46.42516704 29 44 C29.33 42.68 29.66 41.36 30 40 C29.01 40.33 28.02 40.66 27 41 C22 36 22 36 19.875 33.8125 C17.82176298 31.74736016 15.67548087 29.86257763 13.4375 28 C10.55772117 25.56804854 8.30342609 22.99445392 6 20 C5.154375 19.154375 4.30875 18.30875 3.4375 17.4375 C-0.86666667 13.13333333 -0.86666667 13.13333333 -2 11 C-1.125 8.375 -1.125 8.375 0 6 C-0.33 5.34 -0.66 4.68 -1 4 C-1.721875 4.721875 -2.44375 5.44375 -3.1875 6.1875 C-4.115625 7.115625 -5.04375 8.04375 -6 9 C-6.886875 9.9075 -7.77375 10.815 -8.6875 11.75 C-11 14 -11 14 -13 15 C-11.38989473 10.92623969 -8.46177729 8.23492931 -5.375 5.25 C-4.859375 4.74339844 -4.34375 4.23679687 -3.8125 3.71484375 C-2.54616661 2.47196098 -1.2736856 1.23534724 0 0 Z M41 52 C41 52.66 41 53.32 41 54 C41.66 53.67 42.32 53.34 43 53 C42.34 52.67 41.68 52.34 41 52 Z M53 64 C54 66 54 66 54 66 Z M65 76 C65 76.66 65 77.32 65 78 C65.66 77.67 66.32 77.34 67 77 C66.34 76.67 65.68 76.34 65 76 Z M79 90 C80 92 80 92 80 92 Z M91 102 C91 102.66 91 103.32 91 104 C91.66 103.67 92.32 103.34 93 103 C92.34 102.67 91.68 102.34 91 102 Z M133 144 C134 146 134 146 134 146 Z M159 170 C159 170.66 159 171.32 159 172 C159.66 171.67 160.32 171.34 161 171 C160.34 170.67 159.68 170.34 159 170 Z M165 176 C165 176.66 165 177.32 165 178 C165.66 177.67 166.32 177.34 167 177 C166.34 176.67 165.68 176.34 165 176 Z M189 200 C190 202 190 202 190 202 Z M203 214 C203 214.66 203 215.32 203 216 C203.66 215.67 204.32 215.34 205 215 C204.34 214.67 203.68 214.34 203 214 Z M229 240 C229 240.66 229 241.32 229 242 C229.66 241.67 230.32 241.34 231 241 C230.34 240.67 229.68 240.34 229 240 Z M241 252 C242 254 242 254 242 254 Z M253 264 C253 264.66 253 265.32 253 266 C253.66 265.67 254.32 265.34 255 265 C254.34 264.67 253.68 264.34 253 264 Z M272 284 C272.33 284.66 272.66 285.32 273 286 C273.66 285.67 274.32 285.34 275 285 C274.01 284.67 273.02 284.34 272 284 Z " fill="#E67649" transform="translate(1075,783)"/>
<path d="M0 0 C1.9375 0.125 1.9375 0.125 4 1 C5.67632805 2.92467295 6.86068384 4.72136768 8 7 C8.99 7 9.98 7 11 7 C11.33 7.66 11.66 8.32 12 9 C12.825 9.804375 13.65 10.60875 14.5 11.4375 C17 14 17 14 18 17 C18.99 17 19.98 17 21 17 C21.33 17.66 21.66 18.32 22 19 C22.804375 19.78375 23.60875 20.5675 24.4375 21.375 C26.6805404 23.6727487 27.6841317 25.18028222 29 28 C29.53625 28.53625 30.0725 29.0725 30.625 29.625 C31.07875 30.07875 31.5325 30.5325 32 31 C32 31.66 32 32.32 32 33 C33.98 32.505 33.98 32.505 36 32 C36.24621094 32.58523438 36.49242187 33.17046875 36.74609375 33.7734375 C38.19373768 36.34402017 39.79242482 37.75455693 42.0625 39.625 C45.90277778 42.80555556 45.90277778 42.80555556 47 45 C48.09987522 45.98706751 49.22905931 46.94180779 50.375 47.875 C53.00559057 50.07785227 54.96974177 52.23146605 57 55 C57.845625 55.66 58.69125 56.32 59.5625 57 C61.92366378 58.93736516 62.90137958 60.20351167 64 63 C64.99 63 65.98 63 67 63 C66.75 64.875 66.75 64.875 66 67 C63.9375 68.25 63.9375 68.25 62 69 C60.58398438 66.31445312 60.58398438 66.31445312 59.16796875 63.62890625 C58.00980201 61.67732013 58.00980201 61.67732013 55 61 C52 56.66666667 52 56.66666667 52 54 C51.21625 53.71125 50.4325 53.4225 49.625 53.125 C46.23058055 51.67024881 44.22017621 49.22790317 41.640625 46.6328125 C40.32754179 45.32598207 39.00176382 44.03191189 37.671875 42.7421875 C36.85203125 41.94039062 36.0321875 41.13859375 35.1875 40.3125 C34.39730469 39.54550781 33.60710937 38.77851562 32.79296875 37.98828125 C31 36 31 36 31 34 C30.443125 33.773125 29.88625 33.54625 29.3125 33.3125 C26.34760028 31.62971908 24.383485 29.43891488 22 27 C20.88228384 26.0538278 19.75681892 25.11675625 18.625 24.1875 C15.26919299 21.35694974 12.46429269 18.21887778 9.625 14.87890625 C8.27471055 13.31763408 6.83459796 11.83459796 5.375 10.375 C2.71361998 7.71361998 0.37504509 4.91791253 -2 2 C-1.34 1.34 -0.68 0.68 0 0 Z " fill="#118FD7" transform="translate(1063,1598)"/>
<path d="M0 0 C2.14229025 1.07114513 3.35431476 2.28276323 5 4 C5.87277132 4.87277132 6.80371295 5.6865799 7.7421875 6.48828125 C8.44601562 7.09027344 9.14984375 7.69226562 9.875 8.3125 C10.57367187 8.90675781 11.27234375 9.50101563 11.9921875 10.11328125 C13.94741577 11.95058719 15.43373908 13.83030712 17 16 C18.31442362 17.35197858 19.6434836 18.69026002 21 20 C18 22 18 22 15 22 C13.39453125 20.5390625 13.39453125 20.5390625 11.8125 18.625 C11.28269531 17.99851562 10.75289062 17.37203125 10.20703125 16.7265625 C9 15 9 15 9 13 C8.41734375 12.74476562 7.8346875 12.48953125 7.234375 12.2265625 C4.78611777 10.88258913 3.18256752 9.38189704 1.25 7.375 C0.63640625 6.74335937 0.0228125 6.11171875 -0.609375 5.4609375 C-1.29773438 4.73777344 -1.29773438 4.73777344 -2 4 C-1.34 2.68 -0.68 1.36 0 0 Z " fill="#118FD7" transform="translate(1007,1541)"/>
<path d="M0 0 C2.77410214 0.38263478 3.76887672 0.71340714 5.5625 2.9375 C6.036875 3.618125 6.51125 4.29875 7 5 C7.99 5.66 8.98 6.32 10 7 C13.98963975 10.01258511 16.60389598 12.11363592 18 17 C17.34 17 16.68 17 16 17 C16 17.66 16 18.32 16 19 C11.39053564 17.77984767 9.36195951 15.38027138 6.48828125 11.80859375 C4.86254652 9.76668831 4.86254652 9.76668831 2.1875 7.25 C0 5 0 5 -1 2 C-0.67 1.34 -0.34 0.68 0 0 Z " fill="#118FD7" transform="translate(1027,1562)"/>
<path d="M0 0 C0 3 0 3 -2 5.1875 C-2.66 5.785625 -3.32 6.38375 -4 7 C-3.67 7.99 -3.34 8.98 -3 10 C-2.01 10 -1.02 10 0 10 C2.1875 13 2.1875 13 4 16 C3.34 16.66 2.68 17.32 2 18 C-0.25 17.6875 -0.25 17.6875 -3 17 C-4.010625 16.855625 -5.02125 16.71125 -6.0625 16.5625 C-9 16 -9 16 -13 14 C-8.71 9.38 -4.42 4.76 0 0 Z " fill="#EB8127" transform="translate(1310,535)"/>
<path d="M0 0 C1.75 0.125 1.75 0.125 4 1 C5.34270821 2.99371825 6.67653494 4.9934562 8 7 C8.99 7 9.98 7 11 7 C11.33 7.99 11.66 8.98 12 10 C13.49985609 11.66710346 13.49985609 11.66710346 15 13 C14.34 13.66 13.68 14.32 13 15 C11 14.875 11 14.875 9 14 C8.3162955 12.67532254 7.65035814 11.34136367 7 10 C5.67479497 9.31731862 4.34187818 8.6492959 3 8 C2.67 7.01 2.34 6.02 2 5 C1.01 4.67 0.02 4.34 -1 4 C-0.67 2.68 -0.34 1.36 0 0 Z " fill="#118FD7" transform="translate(1049,1584)"/>
<path d="M0 0 C1.9375 0.375 1.9375 0.375 4 1 C4.33 1.66 4.66 2.32 5 3 C4.67 3.33 4.34 3.66 4 4 C4.639375 4.103125 5.27875 4.20625 5.9375 4.3125 C6.618125 4.539375 7.29875 4.76625 8 5 C8.33 5.99 8.66 6.98 9 8 C9.99 8.33 10.98 8.66 12 9 C11.67 10.32 11.34 11.64 11 13 C7.65750371 12.40312566 5.53563658 11.26396123 3 9 C3 8.34 3 7.68 3 7 C2.34 7 1.68 7 1 7 C-0.0625 4.625 -0.0625 4.625 -1 2 C-0.67 1.34 -0.34 0.68 0 0 Z " fill="#118FD7" transform="translate(995,1530)"/>
<path d="M0 0 C2.5722047 1.28610235 3.00974907 2.33393981 4 5 C3.625 7.25 3.625 7.25 3 9 C1.29159719 7.36587557 0.06546953 6.13093906 -1 4 C-1.721875 4.721875 -2.44375 5.44375 -3.1875 6.1875 C-4.115625 7.115625 -5.04375 8.04375 -6 9 C-6.886875 9.9075 -7.77375 10.815 -8.6875 11.75 C-11 14 -11 14 -13 15 C-11.38989473 10.92623969 -8.46177729 8.23492931 -5.375 5.25 C-4.859375 4.74339844 -4.34375 4.23679687 -3.8125 3.71484375 C-2.54616661 2.47196098 -1.2736856 1.23534724 0 0 Z " fill="#D97851" transform="translate(1075,783)"/>
<path d="M0 0 C3.49158202 0.64658926 6.0974856 1.96039529 9 4 C9.33 4.99 9.66 5.98 10 7 C10.99 7.33 11.98 7.66 13 8 C11.625 9.5 11.625 9.5 10 11 C9.34 11 8.68 11 8 11 C5.11694804 8.11694804 2.45144188 5.26858917 0 2 C0 1.34 0 0.68 0 0 Z " fill="#CC5CA8" transform="translate(851,1382)"/>
<path d="M0 0 C4.0369867 1.79421631 6.64480474 3.20551875 9 7 C7.35 7.66 5.7 8.32 4 9 C1.5 6.6875 1.5 6.6875 -1 4 C-1 1 -1 1 0 0 Z " fill="#118FD7" transform="translate(987,1522)"/>
<path d="M0 0 C1.485 0.99 1.485 0.99 3 2 C5.11280345 2.63292383 5.11280345 2.63292383 7 3 C7.33 4.32 7.66 5.64 8 7 C6.02 7.66 4.04 8.32 2 9 C0.4375 7.875 0.4375 7.875 -1 6 C-0.6875 2.8125 -0.6875 2.8125 0 0 Z " fill="#CC5CA8" transform="translate(973,1503)"/>
<path d="M0 0 C2 0.25 2 0.25 4 1 C4.33 1.99 4.66 2.98 5 4 C5.99 4.33 6.98 4.66 8 5 C8 6.65 8 8.3 8 10 C5.1875 9.4375 5.1875 9.4375 2 8 C0.55911437 5.71463927 -0.13569208 3.59292376 -1 1 C-0.67 0.67 -0.34 0.34 0 0 Z " fill="#CC5BA8" transform="translate(912,1441)"/>
<path d="M0 0 C4.72254335 1.49132948 4.72254335 1.49132948 6.125 4.0625 C6.41375 4.701875 6.7025 5.34125 7 6 C7.99 6.33 8.98 6.66 10 7 C8.71034824 8.37562854 7.37310707 9.70766393 6 11 C5.34 11 4.68 11 4 11 C3.8453125 10.13375 3.8453125 10.13375 3.6875 9.25 C3.11076107 6.90012053 3.11076107 6.90012053 1.4375 4.9375 C0 3 0 3 0 0 Z " fill="#CC5CA8" transform="translate(902,1431)"/>
<path d="M0 0 C2.3125 0.1875 2.3125 0.1875 5 1 C7.20970874 3.89548041 8 5.33157745 8 9 C4.39486597 6.93992341 1.19668988 4.6486859 -2 2 C-1.34 2 -0.68 2 0 2 C0 1.34 0 0.68 0 0 Z " fill="#CC5CA8" transform="translate(931,1461)"/>
<path d="M0 0 C2 3 2 3 2 5 C2.99 5 3.98 5 5 5 C4.34 6.32 3.68 7.64 3 9 C0.5625 8.25 0.5625 8.25 -2 7 C-3 5.0625 -3 5.0625 -3 3 C-1.5625 1.25 -1.5625 1.25 0 0 Z " fill="#F7880C" transform="translate(1421,420)"/>
<path d="M0 0 C1.32 0.33 2.64 0.66 4 1 C3.01 1.495 3.01 1.495 2 2 C2.99 3.65 3.98 5.3 5 7 C3.02 7 1.04 7 -1 7 C-1.625 5.1875 -1.625 5.1875 -2 3 C-1.34 2.01 -0.68 1.02 0 0 Z " fill="#CC5BA8" transform="translate(948,1477)"/>
<path d="M0 0 C2.33944736 0.28730055 4.6739143 0.61936779 7 1 C7.33 2.32 7.66 3.64 8 5 C3.31908701 5 2.37898396 4.00354129 -1 1 C-0.67 0.67 -0.34 0.34 0 0 Z " fill="#CC5CA8" transform="translate(939,1471)"/>
<path d="M0 0 C1.32 0.66 2.64 1.32 4 2 C4 2.99 4 3.98 4 5 C2.35 5.33 0.7 5.66 -1 6 C-1.625 4.125 -1.625 4.125 -2 2 C-1.34 1.34 -0.68 0.68 0 0 Z " fill="#118FD7" transform="translate(1045,1579)"/>
<path d="M0 0 C0.99 1.32 1.98 2.64 3 4 C0 6 0 6 -3 6 C-3 5.01 -3 4.02 -3 3 C-2.34 3 -1.68 3 -1 3 C-0.67 2.01 -0.34 1.02 0 0 Z " fill="#CC5BA8" transform="translate(881,1408)"/>
<path d="M0 0 C1.32 0.66 2.64 1.32 4 2 C2.68 3.32 1.36 4.64 0 6 C-0.66 5.34 -1.32 4.68 -2 4 C-2 3.34 -2 2.68 -2 2 C-1.34 2 -0.68 2 0 2 C0 1.34 0 0.68 0 0 Z " fill="#CC5CA8" transform="translate(842,1371)"/>
<path d="M0 0 C2.31 0.66 4.62 1.32 7 2 C6.01 2.99 5.02 3.98 4 5 C2.68 4.34 1.36 3.68 0 3 C0 2.01 0 1.02 0 0 Z " fill="#CC5BA8" transform="translate(869,1400)"/>
<path d="M0 0 C0.99 1.32 1.98 2.64 3 4 C2.01 4.99 1.02 5.98 0 7 C-0.66 6.01 -1.32 5.02 -2 4 C-1.34 2.68 -0.68 1.36 0 0 Z " fill="#CC5CA8" transform="translate(969,1496)"/>
</svg>
