<?xml version="1.0" encoding="UTF-8"?>
<svg version="1.1" xmlns="http://www.w3.org/2000/svg" width="512" height="512">
<path d="M0 0 C0.98395752 0.00021149 1.96791504 0.00042297 2.98168945 0.00064087 C19.00458015 0.0348903 34.34429925 1.04675922 50.0625 4.375 C51.45033691 4.65585449 51.45033691 4.65585449 52.86621094 4.94238281 C72.78147248 9.03572198 91.72487794 15.64603691 110.0625 24.375 C110.73587402 24.69049805 111.40924805 25.00599609 112.10302734 25.33105469 C129.3272806 33.43707975 145.19784922 43.49651662 160.0625 55.375 C160.64418945 55.8395459 161.22587891 56.3040918 161.82519531 56.78271484 C176.20999706 68.40940503 189.89226549 81.61139961 201.0625 96.375 C201.99931326 97.5721523 202.93686758 98.76872491 203.875 99.96484375 C211.3887044 109.64850113 217.96438049 119.74758148 224.0625 130.375 C224.46597656 131.07737793 224.86945313 131.77975586 225.28515625 132.50341797 C239.10002262 156.85610939 247.7754648 183.96184661 253.0625 211.375 C253.22766113 212.19258789 253.39282227 213.01017578 253.56298828 213.85253906 C259.34050903 243.66621906 258.22685075 277.73985861 252.0625 307.375 C251.87526367 308.2834668 251.68802734 309.19193359 251.49511719 310.12792969 C250.25092333 315.94920974 248.7559698 321.6690956 247.0625 327.375 C246.81661133 328.20483398 246.57072266 329.03466797 246.31738281 329.88964844 C234.17560551 370.00169315 213.04038255 405.21595376 184.0625 435.375 C183.546875 435.91253906 183.03125 436.45007813 182.5 437.00390625 C175.41673743 444.34257492 168.12353762 451.10278814 160.0625 457.375 C158.62390625 458.53902344 158.62390625 458.53902344 157.15625 459.7265625 C123.28427571 486.67017841 81.80549306 504.0447993 39.0625 510.375 C37.94222412 510.55087646 36.82194824 510.72675293 35.66772461 510.90795898 C24.10881249 512.56091208 12.6631122 512.73280681 1 512.6875 C0.00294037 512.68534485 -0.99411926 512.6831897 -2.02139282 512.68096924 C-16.51698723 512.63065902 -30.69234479 512.29641549 -44.9375 509.375 C-45.96214355 509.17100586 -46.98678711 508.96701172 -48.04248047 508.75683594 C-89.32802291 500.35666782 -126.79837193 483.43500859 -159.9375 457.375 C-160.89269531 456.62605469 -161.84789062 455.87710937 -162.83203125 455.10546875 C-170.21334325 449.0886098 -176.99599754 442.52240477 -183.75 435.8125 C-184.63357178 434.93819336 -185.51714355 434.06388672 -186.42749023 433.16308594 C-201.26375325 418.2555552 -213.6393367 400.68339493 -223.9375 382.375 C-224.27587891 381.78187012 -224.61425781 381.18874023 -224.96289062 380.57763672 C-238.86994384 356.06745259 -247.89931245 329.03621188 -252.9375 301.375 C-253.10121094 300.53936523 -253.26492187 299.70373047 -253.43359375 298.84277344 C-258.7262992 271.12168188 -258.33690744 239.03690963 -252.9375 211.375 C-252.69604248 210.02946045 -252.69604248 210.02946045 -252.44970703 208.65673828 C-241.62712011 148.84661096 -207.56935543 91.33254171 -158.9375 54.375 C-158.39722168 53.95831055 -157.85694336 53.54162109 -157.30029297 53.11230469 C-147.3052884 45.4290127 -136.84540964 38.68657032 -125.9375 32.375 C-125.26025879 31.98070801 -124.58301758 31.58641602 -123.88525391 31.18017578 C-100.9666244 17.99788827 -75.39177437 9.39239082 -49.5625 4.0625 C-48.85182373 3.91506348 -48.14114746 3.76762695 -47.40893555 3.61572266 C-31.69696531 0.61710746 -15.95290113 -0.03184514 0 0 Z " fill="#8F9ED1" transform="translate(255.9375,-0.37499999999999994)"/>
<path d="M0 0 C1.46618523 -0.01226624 1.46618523 -0.01226624 2.96199036 -0.02478027 C6.2187946 -0.04972003 9.47555456 -0.06618462 12.73242188 -0.08056641 C13.84664017 -0.08589008 14.96085846 -0.09121376 16.10884094 -0.09669876 C22.02226067 -0.12348525 27.93565903 -0.14283033 33.84912109 -0.15722656 C39.92238602 -0.17376096 45.99509621 -0.21842764 52.06815338 -0.26959801 C56.76292438 -0.30350056 61.45756851 -0.31482987 66.15245056 -0.32045364 C68.38805815 -0.32711786 70.62365885 -0.3422117 72.85914612 -0.36634445 C94.53446035 -0.58671588 112.05667335 2.45640226 128.38085938 17.78271484 C138.74336003 28.54645711 144.37448407 42.32161669 145.07617188 57.19287109 C144.49858854 82.85923056 132.56351413 110.64225828 115.00195312 129.01708984 C99.20627773 144.09170731 79.7236894 149.54905568 58.38476562 149.38818359 C56.91789443 149.38444631 55.45102072 149.38160272 53.98414612 149.37960815 C50.15205812 149.37202794 46.32012543 149.35242878 42.48809814 149.3302002 C38.56630554 149.30961978 34.64448747 149.30058054 30.72265625 149.29052734 C23.04875787 149.26917667 15.37498676 149.2351099 7.70117188 149.19287109 C7.62885094 150.07977127 7.62885094 150.07977127 7.55506897 150.98458862 C6.96454345 157.56564659 5.90704306 163.97022615 4.63476562 170.45068359 C4.43641617 171.47974823 4.23806671 172.50881287 4.03370667 173.56906128 C3.40620891 176.81949009 2.77254847 180.06868089 2.13867188 183.31787109 C1.70922561 185.53654181 1.28018524 187.75529113 0.8515625 189.97412109 C-0.19387934 195.3812908 -1.24484555 200.78735997 -2.29882812 206.19287109 C-5.59882812 206.19287109 -8.89882813 206.19287109 -12.29882812 206.19287109 C-18.77028122 194.49332278 -24.49620009 182.67634047 -29.29882812 170.19287109 C-29.64284668 169.29890625 -29.98686523 168.40494141 -30.34130859 167.48388672 C-31.38025997 164.73078667 -32.37780095 161.9662092 -33.36132812 159.19287109 C-33.67279785 158.35723633 -33.98426758 157.52160156 -34.30517578 156.66064453 C-36.52130017 150.16018448 -36.37343245 144.92531885 -35.29882812 138.19287109 C-35.12472412 137.0776709 -34.95062012 135.9624707 -34.77124023 134.81347656 C-34.1295359 130.91218517 -33.43969113 127.02087415 -32.73632812 123.13037109 C-32.47182294 121.64894379 -32.20742157 120.16749795 -31.94311523 118.68603516 C-29.51471974 105.14317385 -26.93113181 91.62978065 -24.34057617 78.1171875 C-22.0348326 66.08749625 -19.76757007 54.0514231 -17.54882812 42.00537109 C-17.33080032 40.82311447 -17.33080032 40.82311447 -17.10836792 39.61697388 C-15.14023001 28.9328561 -13.22114071 18.24146757 -11.45214844 7.5222168 C-10.01391822 -1.02570866 -8.08651478 0.03692891 0 0 Z " fill="#F1F1F1" transform="translate(45.298828125,177.80712890625)"/>
<path d="M0 0 C13.13583403 -0.1164323 26.27154301 -0.20498687 39.40779018 -0.25906086 C45.5091076 -0.28502856 51.61006903 -0.32019 57.71118164 -0.37719727 C63.61160284 -0.43197717 69.51168407 -0.46151669 75.41234016 -0.47438622 C77.65075079 -0.48354419 79.8891452 -0.50142474 82.12740898 -0.52865028 C96.29899159 -0.69399532 111.4372632 -0.64644774 124 7 C124.95727539 9.2487793 124.95727539 9.2487793 125.59765625 12.07421875 C125.96189697 13.64393433 125.96189697 13.64393433 126.33349609 15.24536133 C126.57406738 16.38126709 126.81463867 17.51717285 127.0625 18.6875 C127.44656006 20.465802 127.44656006 20.465802 127.83837891 22.2800293 C128.58832555 25.84812361 129.30082274 29.42164662 130 33 C130.1851416 33.90911133 130.3702832 34.81822266 130.56103516 35.75488281 C135.4902794 60.94661359 134.75368885 89.40445883 132 114.875 C131.92442871 115.73931641 131.84885742 116.60363281 131.77099609 117.49414062 C130.94993209 123.33655802 128.57612781 125.94581186 123.97460938 129.5390625 C123.32298828 130.02117187 122.67136719 130.50328125 122 131 C121.23171875 131.66128906 120.4634375 132.32257813 119.671875 133.00390625 C107.06481033 143.22792821 91.48209622 149.14518927 75.23852539 149.11352539 C73.93770523 149.11344986 72.63688507 149.11337433 71.29664612 149.11329651 C69.89698243 149.10819141 68.49731914 149.10297544 67.09765625 149.09765625 C65.65034535 149.09578866 64.20303381 149.09436637 62.75572205 149.09336853 C58.9664024 149.08957018 55.17712174 149.0797631 51.38781738 149.06866455 C47.51310758 149.05839247 43.6383914 149.05385854 39.76367188 149.04882812 C32.17576357 149.03813816 24.58788727 149.02109434 17 149 C16.94630249 149.68842484 16.89260498 150.37684967 16.83728027 151.08613586 C16.32870334 157.17348442 15.56490933 163.11021247 14.40625 169.10546875 C14.25466431 169.91438065 14.10307861 170.72329254 13.94689941 171.55671692 C13.46941667 174.10124829 12.98520208 176.64443036 12.5 179.1875 C12.01576813 181.74144821 11.533075 184.29566624 11.05310059 186.85041809 C10.75639025 188.42814551 10.45716974 190.00540388 10.15490723 191.58207703 C10.01806519 192.30675674 9.88122314 193.03143646 9.74023438 193.77807617 C9.56155823 194.71426033 9.56155823 194.71426033 9.37927246 195.6693573 C8.82126151 199.09835432 8.43090954 202.55272372 8 206 C-7.18 206 -22.36 206 -38 206 C-37.33143776 199.98293981 -36.55984054 194.18326335 -35.3984375 188.26953125 C-35.24151428 187.45447617 -35.08459106 186.63942108 -34.9229126 185.79966736 C-34.58575562 184.04979623 -34.24709153 182.30021493 -33.90704346 180.55090332 C-32.98748825 175.81799478 -32.08038546 171.08269505 -31.171875 166.34765625 C-30.98674347 165.38419281 -30.80161194 164.42072937 -30.61087036 163.42807007 C-28.90609151 154.54315056 -27.25518999 145.64886677 -25.625 136.75 C-25.05216766 133.62498454 -24.47924728 130.49998522 -23.90625 127.375 C-23.75782654 126.56522202 -23.60940308 125.75544403 -23.45648193 124.92112732 C-22.19955095 118.07058907 -20.92917741 111.22258198 -19.65625 104.375 C-18.81236305 99.83335877 -17.96863256 95.29168849 -17.125 90.75 C-16.80899338 89.04923813 -16.80899338 89.04923813 -16.48660278 87.31411743 C-14.10943632 74.5114478 -11.75681157 61.70493915 -9.46484375 48.88671875 C-9.26105103 47.74794281 -9.0572583 46.60916687 -8.84729004 45.43588257 C-7.87837402 40.01704887 -6.91372701 34.59750345 -5.95556641 29.17675781 C-5.6071743 27.22068924 -5.2587082 25.26463385 -4.91015625 23.30859375 C-4.68573097 22.02597908 -4.68573097 22.02597908 -4.45677185 20.717453 C-3.21137046 13.75456363 -1.63366875 6.88119539 0 0 Z " fill="#F1F1F1" transform="translate(379,178)"/>
<path d="M0 0 C14.85 0 29.7 0 45 0 C43.731525 7.61085002 42.44233681 15.20829777 41.0546875 22.796875 C40.87994904 23.75652161 40.70521057 24.71616821 40.525177 25.70489502 C39.97595667 28.72008359 39.42550232 31.73504526 38.875 34.75 C38.49861562 36.81508917 38.12231285 38.88019321 37.74609375 40.9453125 C36.83167043 45.96371375 35.91614164 50.98191216 35 56 C35.76626709 55.98889694 36.53253418 55.97779388 37.32202148 55.96635437 C44.61618878 55.86531264 51.91000707 55.78961583 59.20469666 55.74093914 C62.95317942 55.71507075 66.70107424 55.68010276 70.44921875 55.62280273 C111.07882679 55.01808693 111.07882679 55.01808693 125.98828125 68.84375 C133.01300076 76.17389209 134.30544907 83.23663951 134.20776367 93.15551758 C133.80499997 100.60830246 132.4689022 107.90618093 131.1875 115.25 C130.88242123 117.04156024 130.57749408 118.8331463 130.27270508 120.62475586 C126.62234119 141.85099691 122.48580263 162.99185909 118.35546875 184.12890625 C118.04331421 185.72959709 118.04331421 185.72959709 117.72485352 187.36262512 C117.52714355 188.36903549 117.32943359 189.37544586 117.12573242 190.41235352 C116.95587326 191.27828629 116.7860141 192.14421906 116.61100769 193.03639221 C115.78680929 197.03405188 114.88545331 201.01546009 114 205 C99.15 205 84.3 205 69 205 C70.12395159 192.63653251 70.12395159 192.63653251 71.34765625 186.5625 C71.48001175 185.89517349 71.61236725 185.22784698 71.74873352 184.54029846 C72.03371276 183.10550477 72.32111474 181.67119044 72.61077881 180.23733521 C73.40257981 176.31561473 74.17505494 172.39007726 74.94921875 168.46484375 C75.19554047 167.21899757 75.19554047 167.21899757 75.44683838 165.94798279 C77.50481292 155.50157883 79.43830499 145.03193647 81.375 134.5625 C81.54975861 133.61818115 81.72451721 132.6738623 81.90457153 131.70092773 C82.07536224 130.77803955 82.24615295 129.85515137 82.42211914 128.90429688 C82.6694001 127.56853859 82.6694001 127.56853859 82.92167664 126.20579529 C83.23018844 124.5382912 83.53825251 122.87070419 83.84577942 121.20301819 C84.40721405 118.1639646 84.97409667 115.12841436 85.58520508 112.09887695 C86.61506517 106.88774854 86.83011537 101.91659054 84.3125 97.125 C80.42179946 91.86729657 76.57490824 90.64242881 70.38818359 89.44360352 C62.60548709 88.42464116 54.71335083 88.51068007 46.875 88.375 C45.04164951 88.33675117 43.20831566 88.29769562 41.375 88.2578125 C36.91680432 88.16256532 32.45852483 88.07826439 28 88 C27.96459106 88.91434814 27.96459106 88.91434814 27.9284668 89.84716797 C27.33260679 99.74559782 25.34310808 109.3388011 23.42102051 119.04949951 C22.38294961 124.29597437 21.36563549 129.54647088 20.34765625 134.796875 C20.14449799 135.84261688 19.94133972 136.88835876 19.73202515 137.96578979 C17.96745985 147.08475084 16.33106556 156.22269327 14.75 165.375 C12.3973575 178.96741875 9.76805139 192.48539618 7 206 C-7.85 206 -22.7 206 -38 206 C-35.74401544 191.33610039 -35.74401544 191.33610039 -34.5546875 184.67578125 C-34.42401886 183.94336716 -34.29335022 183.21095306 -34.15872192 182.4563446 C-33.73284273 180.07469423 -33.30415729 177.69356172 -32.875 175.3125 C-32.72482422 174.47630127 -32.57464844 173.64010254 -32.41992188 172.77856445 C-29.87380542 158.61379419 -27.20360827 144.47451438 -24.48937988 130.34112549 C-22.1151951 117.97107351 -19.82581525 105.58952451 -17.625 93.1875 C-14.78768994 77.21010797 -11.82167172 61.25838739 -8.8125 45.3125 C-8.49687103 43.63708633 -8.49687103 43.63708633 -8.17486572 41.92782593 C-7.56201479 38.67687279 -6.94737741 35.42626293 -6.33203125 32.17578125 C-6.15616989 31.24355743 -5.98030853 30.31133362 -5.79911804 29.3508606 C-3.93842276 19.55170178 -1.95645792 9.78228961 0 0 Z " fill="#F1F1F1" transform="translate(220,123)"/>
<path d="M0 0 C5.88579619 -0.07490245 11.7713068 -0.12895322 17.6574707 -0.16479492 C19.65426475 -0.1797576 21.65102664 -0.20013511 23.64770508 -0.22631836 C53.11719413 -0.60271304 53.11719413 -0.60271304 62.34765625 7.26171875 C69.36391759 14.64289202 70.43468994 22.28391286 70.34375 32.23046875 C68.87784948 48.30540054 61.689995 62.93243402 50 74 C42.3039091 80.37911278 31.8223959 85.14404336 21.69042969 85.11352539 C20.84986023 85.11344986 20.00929077 85.11337433 19.14324951 85.11329651 C17.79616913 85.10555458 17.79616913 85.10555458 16.421875 85.09765625 C15.4953009 85.0962413 14.56872681 85.09482635 13.61407471 85.09336853 C10.65935008 85.08777824 7.70470167 85.0752275 4.75 85.0625 C2.74479276 85.05748375 0.73958433 85.05292106 -1.265625 85.04882812 C-6.17711263 85.03781199 -11.0885434 85.020554 -16 85 C-14.34856345 74.87809096 -12.5608992 64.7818185 -10.75 54.6875 C-10.59859558 53.84304321 -10.44719116 52.99858643 -10.29119873 52.12854004 C-8.14113538 40.15505233 -5.93194805 28.19427579 -3.625 16.25 C-3.49798706 15.58938568 -3.37097412 14.92877136 -3.2401123 14.24813843 C-2.88392476 12.39931805 -2.52408882 10.55120167 -2.1640625 8.703125 C-1.86169678 7.15093262 -1.86169678 7.15093262 -1.55322266 5.56738281 C-1 3 -1 3 0 0 Z " fill="#8F9ED1" transform="translate(418,211)"/>
<path d="M0 0 C6.24388488 -0.04969116 12.48765288 -0.08585699 18.73168945 -0.10986328 C20.85280362 -0.11987844 22.97390413 -0.13349446 25.0949707 -0.15087891 C28.15579616 -0.17532525 31.21643797 -0.18652825 34.27734375 -0.1953125 C35.21521225 -0.20563507 36.15308075 -0.21595764 37.11936951 -0.22659302 C47.20258574 -0.22828497 56.94222449 1.399137 64.60546875 8.484375 C69.81231885 14.40888479 70.32079295 19.71055104 70.25 27.25 C70.26160156 28.46236328 70.26160156 28.46236328 70.2734375 29.69921875 C70.22126445 46.00329634 63.66885646 60.78627689 52.75 72.75 C39.23238985 85.54345246 22.71362366 85.41935944 5.3125 85.1875 C3.33920292 85.17242677 1.3658947 85.15874303 -0.60742188 85.14648438 C-5.40522629 85.11368595 -10.20248837 85.06204913 -15 85 C-14.39179152 78.96607909 -13.53659938 73.076437 -12.36328125 67.12890625 C-12.12311531 65.88624748 -12.12311531 65.88624748 -11.87809753 64.6184845 C-11.53584383 62.84790589 -11.19216635 61.077602 -10.84716797 59.30755615 C-9.93759662 54.63769641 -9.04011122 49.96552941 -8.14453125 45.29296875 C-7.96371002 44.34963684 -7.78288879 43.40630493 -7.59658813 42.43438721 C-5.81427594 33.09589215 -4.13813821 23.73973893 -2.5 14.375 C-2.37058014 13.63541046 -2.24116028 12.89582092 -2.1078186 12.13381958 C-1.4010997 8.08992101 -0.69849707 4.0453281 0 0 Z " fill="#8F9ED1" transform="translate(74,211)"/>
</svg>
